<svg id="svg" version="1.1" xmlns="http://www.w3.org/2000/svg" xmlns:xlink="http://www.w3.org/1999/xlink" width="400" height="400" viewBox="0, 0, 400,400"><g id="svgg"><path id="path0" d="M87.162 133.771 C 87.069 133.865,84.474 134.144,81.396 134.392 C 75.923 134.831,73.508 135.087,66.200 136.002 C 54.276 137.494,44.833 139.159,39.000 140.796 C 35.431 141.798,34.921 141.957,33.000 142.672 C 23.214 146.311,28.237 149.669,42.596 149.087 C 47.308 148.897,48.374 148.955,48.551 149.416 C 48.884 150.285,47.786 151.102,45.908 151.382 C 37.887 152.580,36.073 153.796,37.255 157.186 C 37.750 158.607,38.637 158.680,43.000 157.660 C 46.826 156.766,52.787 155.647,55.000 155.408 C 56.320 155.265,58.300 154.983,59.400 154.780 C 65.234 153.708,89.868 152.720,98.000 153.233 C 106.779 153.786,111.839 155.554,115.289 159.273 C 116.960 161.074,119.308 165.608,119.703 167.800 C 119.783 168.240,120.058 168.556,120.315 168.503 C 122.256 168.100,122.981 180.331,121.277 184.722 C 117.972 193.236,110.472 196.883,95.079 197.461 C 87.997 197.726,87.957 197.723,87.731 196.857 C 87.398 195.584,70.549 195.915,68.969 197.226 C 68.727 197.426,67.015 197.728,65.165 197.895 C 61.820 198.198,61.796 198.208,61.133 199.600 C 59.637 202.741,58.087 206.254,57.823 207.106 C 56.920 210.020,56.468 205.123,57.175 200.077 C 57.381 198.604,57.746 195.420,57.987 193.000 C 58.227 190.580,58.778 185.125,59.212 180.877 C 60.337 169.853,60.290 167.199,58.945 165.855 C 57.181 164.090,55.260 164.603,52.139 167.670 C 49.809 169.960,49.200 169.909,49.200 167.425 C 49.200 165.327,48.686 164.844,46.137 164.542 L 44.189 164.311 43.065 167.055 C 40.475 173.380,40.142 174.821,39.241 183.600 C 38.756 188.330,38.183 193.190,37.969 194.400 C 37.611 196.419,37.650 196.658,38.437 197.303 C 39.378 198.073,39.355 206.504,38.393 213.600 C 37.663 218.983,37.462 228.667,38.026 231.322 C 38.520 233.648,38.506 233.765,37.670 234.320 C 35.902 235.494,37.060 244.420,39.695 249.928 C 41.058 252.776,41.879 252.795,41.226 249.964 C 40.089 245.031,40.936 245.048,42.832 249.997 C 44.369 254.011,45.745 255.600,47.680 255.600 C 50.307 255.600,52.507 252.751,51.533 250.612 C 51.135 249.740,51.191 249.461,51.919 248.686 C 52.735 247.817,52.747 247.684,52.199 245.390 C 51.523 242.556,51.436 240.652,52.000 241.000 C 52.220 241.136,52.400 241.766,52.400 242.400 C 52.400 243.034,52.580 243.664,52.800 243.800 C 53.020 243.936,53.200 244.399,53.200 244.829 C 53.200 245.477,53.496 246.215,54.298 247.564 C 54.351 247.655,54.756 247.402,55.198 247.002 C 56.292 246.012,56.217 244.269,54.948 241.169 L 53.896 238.600 54.160 229.800 C 54.411 221.465,54.967 216.237,56.015 212.343 L 56.481 210.614 57.341 211.664 C 57.813 212.241,59.100 213.828,60.200 215.191 C 62.001 217.421,68.072 222.749,70.900 224.580 C 71.674 225.081,72.000 225.628,72.000 226.427 C 72.000 227.395,72.367 227.778,74.500 229.035 C 84.946 235.194,101.983 243.762,110.700 247.241 C 113.015 248.165,113.663 248.426,114.500 248.774 C 120.341 251.198,120.218 250.275,114.159 246.219 C 110.789 243.964,109.670 243.313,104.000 240.308 C 98.023 237.141,97.200 236.658,97.200 236.322 C 97.200 236.006,97.538 236.126,99.495 237.138 C 99.987 237.392,100.583 237.600,100.820 237.600 C 103.535 237.600,119.705 247.158,122.404 250.358 C 124.199 252.488,127.074 254.108,130.432 254.883 C 135.356 256.020,134.505 251.350,128.722 245.497 C 125.391 242.125,125.259 241.884,126.222 240.921 C 126.785 240.358,126.759 240.208,125.952 239.349 C 124.968 238.301,125.358 238.091,126.576 239.013 C 127.539 239.740,128.800 239.778,128.800 239.078 C 128.800 236.931,120.116 231.700,103.485 223.829 C 101.331 222.810,96.949 220.721,93.747 219.188 C 90.544 217.655,87.806 216.396,87.662 216.391 C 87.518 216.386,86.950 216.036,86.400 215.613 C 84.789 214.373,85.739 214.002,89.400 214.442 C 92.606 214.827,101.286 214.373,105.200 213.614 C 106.190 213.422,108.170 213.051,109.600 212.789 C 129.016 209.230,139.652 196.344,139.638 176.400 C 139.621 151.521,129.021 138.578,105.600 134.838 C 98.816 133.754,87.816 133.118,87.162 133.771 M193.200 137.454 C 182.435 138.103,171.371 144.615,163.729 154.800 C 161.066 158.350,156.400 166.664,156.400 167.861 C 156.400 168.163,156.220 168.768,156.000 169.205 C 155.780 169.642,155.420 170.358,155.200 170.795 C 154.980 171.232,154.808 171.907,154.818 172.295 C 154.828 172.683,155.357 171.875,155.994 170.500 C 156.630 169.125,157.342 168.000,157.575 168.000 C 158.095 168.000,158.127 168.966,157.639 169.905 C 157.440 170.287,157.060 171.410,156.793 172.400 C 156.527 173.390,156.164 174.560,155.987 175.000 C 155.810 175.440,155.542 176.430,155.391 177.200 C 155.241 177.970,154.944 179.320,154.731 180.200 C 151.975 191.599,151.957 205.538,154.683 216.600 C 155.008 217.920,155.361 219.450,155.467 220.000 C 155.573 220.550,155.809 221.360,155.991 221.800 C 156.173 222.240,156.714 223.680,157.193 225.000 C 157.672 226.320,158.238 227.725,158.450 228.123 C 158.662 228.521,159.399 229.961,160.087 231.323 C 163.024 237.135,169.092 244.210,174.301 247.896 C 176.007 249.104,176.764 249.921,176.926 250.731 C 177.375 252.977,185.913 257.557,192.295 258.975 C 202.678 261.282,214.318 259.114,219.812 253.850 C 222.214 251.548,221.978 251.234,219.017 252.791 C 217.753 253.456,216.555 254.000,216.355 254.000 C 216.155 254.000,215.228 254.345,214.296 254.767 C 208.539 257.373,194.658 257.751,189.585 255.441 L 188.200 254.810 189.800 254.963 C 190.680 255.048,193.380 255.423,195.800 255.797 C 200.878 256.583,205.451 256.278,210.600 254.811 C 211.480 254.560,212.775 254.206,213.477 254.025 C 214.692 253.711,217.447 252.428,219.592 251.178 C 223.050 249.163,226.270 245.071,226.656 242.200 C 227.268 237.663,222.482 237.810,217.425 242.483 C 216.469 243.367,216.061 243.380,215.150 242.555 C 214.491 241.958,214.279 241.989,212.319 242.966 C 211.153 243.547,209.480 244.117,208.600 244.233 C 207.101 244.430,207.177 244.358,209.800 243.090 C 212.908 241.587,213.980 240.620,213.297 239.937 C 212.991 239.631,212.495 239.694,211.572 240.154 C 210.860 240.509,209.955 240.800,209.562 240.800 C 209.169 240.800,208.751 240.956,208.633 241.147 C 207.826 242.453,193.379 242.461,192.573 241.156 C 192.452 240.960,192.103 240.800,191.798 240.800 C 190.093 240.800,182.986 235.187,180.394 231.793 C 174.376 223.913,170.786 213.830,169.759 201.925 C 169.416 197.946,170.442 190.297,172.270 183.200 C 178.843 157.682,194.434 148.422,209.425 161.131 C 209.659 161.330,210.289 161.723,210.825 162.006 C 211.361 162.288,211.890 162.641,212.000 162.790 C 212.110 162.938,213.349 163.857,214.754 164.830 C 221.786 169.702,222.380 169.910,223.596 167.910 C 224.913 165.745,223.902 162.069,220.757 157.584 C 218.406 154.233,219.310 153.182,222.202 155.903 C 224.068 157.658,226.557 159.200,227.523 159.200 C 228.328 159.199,230.400 157.504,230.400 156.846 C 230.400 156.159,222.210 148.030,219.045 145.576 C 214.195 141.816,209.568 139.529,203.800 138.042 C 201.959 137.567,196.420 137.260,193.200 137.454 M338.000 139.602 C 337.230 139.778,335.340 140.125,333.800 140.373 C 326.356 141.573,323.161 142.402,322.913 143.200 C 322.726 143.806,322.315 144.853,321.620 146.500 C 321.411 146.995,320.970 148.210,320.640 149.200 C 315.517 164.552,310.749 176.019,307.128 181.700 C 305.614 184.074,305.801 184.139,304.227 180.700 C 302.401 176.710,300.312 172.512,299.203 170.600 C 298.692 169.720,298.073 168.640,297.827 168.200 C 294.623 162.473,286.952 153.267,282.305 149.571 L 280.410 148.064 274.905 149.970 C 265.119 153.357,265.008 153.435,264.623 157.200 C 263.619 167.024,261.917 177.907,260.370 184.400 C 259.645 187.444,259.235 189.064,258.827 190.500 C 258.592 191.325,258.207 192.675,257.972 193.500 C 257.737 194.325,257.445 195.408,257.324 195.906 C 257.203 196.404,256.946 196.910,256.752 197.030 C 256.559 197.149,256.400 197.599,256.400 198.029 C 256.400 198.459,256.234 199.123,256.032 199.505 C 255.830 199.887,255.272 201.280,254.793 202.600 C 253.978 204.847,253.772 205.383,252.837 207.700 C 249.052 217.078,243.028 234.576,241.993 239.200 C 241.722 240.410,241.343 241.922,241.150 242.560 C 240.544 244.568,240.715 250.232,241.400 250.800 C 242.670 251.854,246.703 246.536,252.400 236.293 C 255.639 230.469,258.009 229.578,255.560 235.104 C 254.137 238.316,254.056 238.525,253.216 241.166 C 251.804 245.605,252.121 246.593,255.039 246.860 L 256.678 247.010 257.600 244.605 C 259.383 239.955,261.119 236.285,264.131 230.800 C 268.527 222.793,272.683 212.268,275.265 202.600 C 275.500 201.720,275.830 200.550,275.997 200.000 C 276.290 199.034,276.719 197.123,277.635 192.700 C 277.874 191.545,278.216 189.970,278.396 189.200 C 278.575 188.430,278.933 186.540,279.192 185.000 C 279.451 183.460,279.829 181.549,280.031 180.754 C 280.234 179.958,280.400 178.860,280.400 178.313 C 280.400 177.098,281.168 174.800,281.575 174.800 C 281.891 174.800,284.169 179.556,285.599 183.200 C 286.074 184.410,286.718 185.985,287.031 186.700 C 287.344 187.415,287.888 188.675,288.241 189.500 C 288.593 190.325,289.477 192.260,290.205 193.800 C 290.932 195.340,291.620 196.870,291.732 197.200 C 291.845 197.530,291.951 197.057,291.968 196.149 C 292.004 194.305,291.669 193.395,288.832 187.626 C 286.410 182.699,286.169 182.000,286.898 182.000 C 288.232 182.000,294.000 195.285,294.000 198.356 C 294.000 199.537,304.074 204.550,305.797 204.227 C 312.096 203.045,323.853 186.853,330.795 169.800 C 330.974 169.360,331.498 168.147,331.960 167.104 C 332.422 166.062,332.800 165.012,332.800 164.771 C 332.800 164.057,333.768 164.581,334.195 165.526 C 334.412 166.007,334.727 166.400,334.895 166.400 C 335.063 166.400,335.200 166.572,335.200 166.782 C 335.200 166.992,335.760 168.387,336.443 169.882 C 337.625 172.465,337.943 173.213,338.746 175.300 C 338.937 175.795,339.280 176.650,339.509 177.200 C 342.081 183.378,344.085 190.073,343.812 191.581 C 343.355 194.115,343.434 194.943,344.497 198.800 C 345.354 201.910,349.050 219.197,349.841 223.800 C 350.380 226.932,352.386 235.359,353.650 239.800 C 354.442 242.583,356.514 248.631,356.802 249.000 C 356.974 249.220,357.218 249.760,357.344 250.200 C 357.629 251.189,357.325 247.233,356.806 243.200 C 356.058 237.391,353.950 224.186,353.577 222.972 C 353.370 222.296,353.200 221.002,353.200 220.095 C 353.200 219.189,353.020 218.336,352.800 218.200 C 352.580 218.064,352.400 217.233,352.400 216.353 C 352.400 215.388,352.559 214.851,352.800 215.000 C 353.020 215.136,353.200 215.946,353.200 216.800 C 353.200 217.654,353.361 218.452,353.558 218.574 C 353.755 218.695,354.015 219.471,354.137 220.297 C 354.345 221.705,354.645 223.275,355.587 227.900 C 357.267 236.145,358.632 244.791,359.599 253.330 C 360.181 258.455,361.330 261.504,364.092 265.239 C 367.451 269.782,370.025 262.473,368.180 253.631 L 367.560 250.662 368.643 249.798 C 369.609 249.028,369.695 248.764,369.439 247.367 C 369.281 246.505,368.980 244.630,368.770 243.200 C 368.377 240.515,367.904 237.684,367.184 233.700 C 366.956 232.435,366.676 230.680,366.562 229.800 C 366.448 228.920,366.195 227.840,366.000 227.400 C 365.805 226.960,365.554 225.880,365.443 225.000 C 365.332 224.120,365.058 222.500,364.835 221.400 C 364.613 220.300,364.321 218.770,364.188 218.000 C 364.055 217.230,363.790 216.240,363.600 215.800 C 363.410 215.360,363.144 214.370,363.008 213.600 C 362.873 212.830,362.661 211.615,362.537 210.900 C 362.395 210.079,362.476 209.600,362.756 209.600 C 363.000 209.600,363.200 210.219,363.200 210.976 C 363.200 211.733,363.361 212.452,363.558 212.574 C 363.755 212.695,364.014 213.471,364.135 214.297 C 364.552 217.152,364.856 218.603,365.202 219.400 C 365.394 219.840,365.644 220.830,365.759 221.600 C 365.873 222.370,366.148 223.900,366.371 225.000 C 367.579 230.987,368.268 234.507,368.816 237.500 C 369.706 242.367,369.983 243.919,370.344 246.077 C 370.755 248.533,371.030 249.200,371.634 249.200 C 373.787 249.200,372.081 235.029,368.117 220.000 C 366.669 214.509,365.951 211.667,365.591 210.000 C 363.558 200.588,363.436 200.053,362.408 196.000 C 362.213 195.230,361.861 193.925,361.627 193.100 C 361.392 192.275,361.040 191.015,360.845 190.300 C 358.818 182.882,353.611 169.230,348.602 158.200 C 346.631 153.859,339.542 139.171,339.452 139.241 C 339.424 139.264,338.770 139.427,338.000 139.602 M339.400 144.800 C 340.067 146.090,339.891 146.349,338.971 145.429 C 338.438 144.895,338.167 143.600,338.590 143.600 C 338.694 143.600,339.059 144.140,339.400 144.800 M329.374 149.904 C 330.112 152.070,330.167 152.922,329.558 152.719 C 329.052 152.551,327.174 148.159,327.478 147.855 C 327.987 147.346,328.802 148.227,329.374 149.904 M322.851 152.253 C 322.186 153.514,322.032 153.634,322.018 152.900 C 322.008 152.405,322.180 152.000,322.400 152.000 C 322.620 152.000,322.800 151.514,322.800 150.920 C 322.800 150.144,322.922 149.962,323.233 150.273 C 323.545 150.585,323.437 151.143,322.851 152.253 M343.970 153.200 C 344.367 153.200,347.600 160.119,347.600 160.969 C 347.600 162.153,347.001 161.588,346.035 159.493 C 345.505 158.342,344.742 156.697,344.342 155.839 C 343.941 154.980,343.545 153.720,343.462 153.039 C 343.380 152.357,343.389 152.115,343.484 152.500 C 343.578 152.885,343.797 153.200,343.970 153.200 M267.066 157.700 C 266.692 160.664,266.322 161.999,265.939 161.762 C 265.596 161.550,265.877 157.000,266.276 156.300 C 266.803 155.376,267.258 156.181,267.066 157.700 M337.015 164.300 C 337.374 165.125,337.847 166.136,338.066 166.547 C 338.338 167.056,338.328 167.432,338.033 167.727 C 337.722 168.038,337.600 167.918,337.600 167.304 C 337.600 166.833,337.420 166.336,337.200 166.200 C 336.980 166.064,336.800 165.603,336.800 165.176 C 336.800 164.749,336.620 164.400,336.400 164.400 C 336.180 164.400,336.000 164.040,336.000 163.600 C 336.000 162.422,336.283 162.617,337.015 164.300 M331.032 165.101 C 330.571 165.563,330.334 164.840,330.649 163.930 L 330.971 163.000 331.118 163.934 C 331.198 164.448,331.160 164.973,331.032 165.101 M330.235 167.098 C 329.798 167.535,329.499 166.840,329.812 166.117 C 330.110 165.432,330.132 165.433,330.297 166.131 C 330.393 166.534,330.365 166.969,330.235 167.098 M120.542 176.600 C 120.541 178.580,120.608 179.440,120.692 178.512 C 120.776 177.584,120.777 175.964,120.695 174.912 C 120.612 173.860,120.543 174.620,120.542 176.600 M105.300 195.076 C 105.685 195.176,106.315 195.176,106.700 195.076 C 107.085 194.975,106.770 194.893,106.000 194.893 C 105.230 194.893,104.915 194.975,105.300 195.076 M97.300 195.894 C 98.345 195.976,100.055 195.976,101.100 195.894 C 102.145 195.812,101.290 195.744,99.200 195.744 C 97.110 195.744,96.255 195.812,97.300 195.894 M317.933 196.700 C 317.396 197.910,308.886 204.256,305.485 205.985 C 304.530 206.470,304.464 206.604,305.024 206.917 C 306.174 207.561,311.095 204.779,314.230 201.712 C 317.180 198.825,319.112 196.400,318.461 196.400 C 318.244 196.400,318.007 196.535,317.933 196.700 M94.769 199.692 C 96.927 200.572,92.630 200.851,79.200 200.701 C 66.556 200.561,64.400 200.396,64.400 199.570 C 64.400 198.827,92.928 198.942,94.769 199.692 M362.283 208.495 C 362.187 208.993,362.105 208.680,362.101 207.800 C 362.096 206.920,362.175 206.513,362.275 206.895 C 362.375 207.278,362.379 207.998,362.283 208.495 M351.600 209.624 C 351.600 210.337,351.433 210.744,351.200 210.600 C 350.980 210.464,350.800 209.913,350.800 209.376 C 350.800 208.839,350.980 208.400,351.200 208.400 C 351.420 208.400,351.600 208.951,351.600 209.624 M352.400 213.247 C 352.400 213.945,352.233 214.344,352.000 214.200 C 351.780 214.064,351.600 213.413,351.600 212.753 C 351.600 212.055,351.767 211.656,352.000 211.800 C 352.220 211.936,352.400 212.587,352.400 213.247 M206.400 244.800 C 206.840 245.084,206.574 245.182,205.400 245.166 C 204.143 245.148,203.971 245.070,204.600 244.800 C 205.652 244.348,205.700 244.348,206.400 244.800 M175.828 246.932 C 177.674 248.496,183.421 252.399,183.882 252.402 C 184.057 252.403,185.086 252.853,186.168 253.402 C 187.702 254.180,187.922 254.399,187.168 254.398 C 186.636 254.396,185.750 254.154,185.200 253.860 C 183.038 252.704,180.951 251.472,179.938 250.753 C 179.354 250.339,178.771 250.000,178.643 250.000 C 178.347 250.000,177.151 249.014,175.123 247.100 C 173.156 245.243,173.685 245.116,175.828 246.932 " stroke="none" fill="#04f7f8" fill-rule="evenodd"></path><path id="path1" d="M30.400 0.291 C 29.630 0.382,28.829 0.624,28.620 0.829 C 28.411 1.033,27.837 1.200,27.344 1.200 C 26.851 1.200,26.336 1.380,26.200 1.600 C 26.064 1.820,25.513 2.000,24.976 2.000 C 24.439 2.000,24.000 2.180,24.000 2.400 C 24.000 2.620,23.640 2.800,23.200 2.800 C 22.760 2.800,22.400 2.980,22.400 3.200 C 22.400 3.420,22.040 3.600,21.600 3.600 C 21.160 3.600,20.800 3.780,20.800 4.000 C 20.800 4.220,20.440 4.400,20.000 4.400 C 19.560 4.400,19.200 4.580,19.200 4.800 C 19.200 5.020,18.912 5.200,18.560 5.200 C 18.209 5.200,17.417 5.740,16.800 6.400 C 16.183 7.060,15.476 7.600,15.229 7.600 C 14.244 7.600,7.600 14.244,7.600 15.229 C 7.600 15.476,7.060 16.183,6.400 16.800 C 5.740 17.417,5.200 18.209,5.200 18.560 C 5.200 18.912,5.020 19.200,4.800 19.200 C 4.580 19.200,4.400 19.560,4.400 20.000 C 4.400 20.440,4.220 20.800,4.000 20.800 C 3.780 20.800,3.600 21.160,3.600 21.600 C 3.600 22.040,3.420 22.400,3.200 22.400 C 2.980 22.400,2.800 22.760,2.800 23.200 C 2.800 23.640,2.620 24.000,2.400 24.000 C 2.180 24.000,2.000 24.439,2.000 24.976 C 2.000 25.513,1.820 26.064,1.600 26.200 C 1.380 26.336,1.200 26.851,1.200 27.344 C 1.200 27.837,0.975 28.465,0.700 28.740 C -0.036 29.476,-0.036 370.524,0.700 371.260 C 0.975 371.535,1.200 372.163,1.200 372.656 C 1.200 373.149,1.380 373.664,1.600 373.800 C 1.820 373.936,2.000 374.487,2.000 375.024 C 2.000 375.561,2.180 376.000,2.400 376.000 C 2.620 376.000,2.800 376.360,2.800 376.800 C 2.800 377.240,2.980 377.600,3.200 377.600 C 3.420 377.600,3.600 377.960,3.600 378.400 C 3.600 378.840,3.780 379.200,4.000 379.200 C 4.220 379.200,4.400 379.560,4.400 380.000 C 4.400 380.440,4.580 380.800,4.800 380.800 C 5.020 380.800,5.200 381.088,5.200 381.440 C 5.200 381.791,5.740 382.583,6.400 383.200 C 7.060 383.817,7.600 384.524,7.600 384.771 C 7.600 385.756,14.244 392.400,15.229 392.400 C 15.476 392.400,16.183 392.940,16.800 393.600 C 17.417 394.260,18.209 394.800,18.560 394.800 C 18.912 394.800,19.200 394.980,19.200 395.200 C 19.200 395.420,19.560 395.600,20.000 395.600 C 20.440 395.600,20.800 395.780,20.800 396.000 C 20.800 396.220,21.160 396.400,21.600 396.400 C 22.040 396.400,22.400 396.580,22.400 396.800 C 22.400 397.020,22.760 397.200,23.200 397.200 C 23.640 397.200,24.000 397.380,24.000 397.600 C 24.000 397.820,24.439 398.000,24.976 398.000 C 25.513 398.000,26.064 398.180,26.200 398.400 C 26.336 398.620,26.851 398.800,27.344 398.800 C 27.837 398.800,28.465 399.025,28.740 399.300 C 29.476 400.036,370.524 400.036,371.260 399.300 C 371.535 399.025,372.163 398.800,372.656 398.800 C 373.149 398.800,373.664 398.620,373.800 398.400 C 373.936 398.180,374.487 398.000,375.024 398.000 C 375.561 398.000,376.000 397.820,376.000 397.600 C 376.000 397.380,376.360 397.200,376.800 397.200 C 377.240 397.200,377.600 397.020,377.600 396.800 C 377.600 396.580,377.960 396.400,378.400 396.400 C 378.840 396.400,379.200 396.220,379.200 396.000 C 379.200 395.780,379.560 395.600,380.000 395.600 C 380.440 395.600,380.800 395.420,380.800 395.200 C 380.800 394.980,381.088 394.800,381.440 394.800 C 381.791 394.800,382.583 394.260,383.200 393.600 C 383.817 392.940,384.524 392.400,384.771 392.400 C 385.192 392.400,387.036 390.887,388.962 388.962 C 390.887 387.036,392.400 385.192,392.400 384.771 C 392.400 384.524,392.940 383.817,393.600 383.200 C 394.260 382.583,394.800 381.791,394.800 381.440 C 394.800 381.088,394.980 380.800,395.200 380.800 C 395.420 380.800,395.600 380.440,395.600 380.000 C 395.600 379.560,395.780 379.200,396.000 379.200 C 396.220 379.200,396.400 378.840,396.400 378.400 C 396.400 377.960,396.580 377.600,396.800 377.600 C 397.020 377.600,397.200 377.240,397.200 376.800 C 397.200 376.360,397.380 376.000,397.600 376.000 C 397.820 376.000,398.000 375.561,398.000 375.024 C 398.000 374.487,398.180 373.936,398.400 373.800 C 398.620 373.664,398.800 373.149,398.800 372.656 C 398.800 372.163,399.025 371.535,399.300 371.260 C 400.036 370.524,400.036 29.476,399.300 28.740 C 399.025 28.465,398.800 27.837,398.800 27.344 C 398.800 26.851,398.620 26.336,398.400 26.200 C 398.180 26.064,398.000 25.513,398.000 24.976 C 398.000 24.439,397.820 24.000,397.600 24.000 C 397.380 24.000,397.200 23.640,397.200 23.200 C 397.200 22.760,397.020 22.400,396.800 22.400 C 396.580 22.400,396.400 22.040,396.400 21.600 C 396.400 21.160,396.220 20.800,396.000 20.800 C 395.780 20.800,395.600 20.440,395.600 20.000 C 395.600 19.560,395.420 19.200,395.200 19.200 C 394.980 19.200,394.800 18.912,394.800 18.560 C 394.800 18.209,394.260 17.417,393.600 16.800 C 392.940 16.183,392.400 15.476,392.400 15.229 C 392.400 14.244,385.756 7.600,384.771 7.600 C 384.524 7.600,383.817 7.060,383.200 6.400 C 382.583 5.740,381.791 5.200,381.440 5.200 C 381.088 5.200,380.800 5.020,380.800 4.800 C 380.800 4.580,380.440 4.400,380.000 4.400 C 379.560 4.400,379.200 4.220,379.200 4.000 C 379.200 3.780,378.840 3.600,378.400 3.600 C 377.960 3.600,377.600 3.420,377.600 3.200 C 377.600 2.980,377.240 2.800,376.800 2.800 C 376.360 2.800,376.000 2.620,376.000 2.400 C 376.000 2.180,375.561 2.000,375.024 2.000 C 374.487 2.000,373.936 1.820,373.800 1.600 C 373.664 1.380,373.149 1.200,372.656 1.200 C 372.163 1.200,371.535 0.975,371.260 0.700 C 370.782 0.222,34.383 -0.182,30.400 0.291 M102.225 133.781 C 124.632 136.755,135.343 145.648,139.462 164.695 C 140.410 169.076,140.425 184.007,139.484 187.200 C 139.128 188.410,138.711 189.830,138.557 190.355 C 136.904 196.008,127.867 207.150,124.900 207.193 C 124.625 207.197,124.400 207.337,124.400 207.504 C 124.400 207.790,120.074 210.089,118.100 210.852 C 117.605 211.043,116.795 211.373,116.300 211.585 C 115.202 212.055,110.175 213.382,107.267 213.970 C 103.808 214.669,93.650 215.306,90.300 215.033 C 85.714 214.660,86.116 215.133,93.000 218.209 C 94.986 219.097,104.321 223.569,111.600 227.120 C 113.690 228.140,116.899 229.835,118.732 230.887 C 120.564 231.939,122.138 232.800,122.231 232.800 C 122.571 232.800,126.643 235.779,127.900 236.948 C 129.352 238.298,129.671 240.000,128.472 240.000 C 127.731 240.000,126.000 241.682,126.000 242.403 C 126.000 242.621,126.201 242.800,126.446 242.800 C 126.692 242.800,128.113 244.062,129.605 245.605 C 136.154 252.378,135.236 257.942,128.096 254.753 C 127.053 254.288,125.660 253.671,125.000 253.382 C 124.340 253.093,122.965 251.889,121.944 250.706 C 120.151 248.628,114.771 244.727,112.100 243.569 C 111.385 243.259,110.800 242.869,110.800 242.702 C 110.800 242.536,110.395 242.421,109.900 242.446 C 109.223 242.481,109.173 242.538,109.700 242.676 C 110.085 242.776,110.400 243.025,110.400 243.229 C 110.400 243.433,110.745 243.600,111.167 243.600 C 111.588 243.600,111.993 243.746,112.067 243.923 C 112.140 244.101,113.613 245.191,115.340 246.345 C 118.285 248.313,120.400 250.084,120.400 250.582 C 120.400 251.366,115.595 250.025,110.800 247.903 C 109.810 247.465,108.370 246.839,107.600 246.510 C 99.755 243.168,82.419 234.385,75.300 230.146 C 71.695 227.999,71.435 227.733,71.575 226.325 C 71.612 225.954,71.286 225.460,70.852 225.228 C 70.418 224.995,69.823 224.579,69.531 224.303 C 69.239 224.026,68.010 223.043,66.800 222.117 C 65.590 221.191,63.880 219.799,63.000 219.024 C 62.120 218.249,61.164 217.612,60.876 217.608 C 60.588 217.603,60.451 217.440,60.572 217.245 C 60.857 216.785,59.747 215.862,59.266 216.159 C 59.063 216.284,58.787 215.835,58.652 215.160 C 58.517 214.485,58.000 213.363,57.503 212.666 L 56.600 211.400 56.282 213.200 C 56.107 214.190,55.776 216.080,55.547 217.400 C 54.636 222.633,54.655 239.479,55.574 241.435 C 57.188 244.868,56.127 249.021,53.978 247.679 C 53.318 247.267,53.200 247.300,53.200 247.900 C 53.200 248.289,52.853 248.824,52.429 249.089 C 51.754 249.511,51.716 249.724,52.126 250.810 C 53.035 253.218,49.656 256.902,47.123 256.267 C 45.837 255.944,43.600 253.895,43.600 253.040 C 43.600 252.688,43.420 252.400,43.200 252.400 C 42.980 252.400,42.779 251.995,42.753 251.500 C 42.716 250.801,42.648 250.866,42.450 251.795 C 41.548 256.009,37.810 249.550,36.840 242.101 C 35.982 235.507,35.981 235.333,36.769 234.330 C 37.560 233.325,37.537 224.400,36.743 224.400 C 36.555 224.400,36.400 223.860,36.400 223.200 C 36.400 222.540,36.580 222.000,36.800 222.000 C 37.039 222.000,37.200 220.467,37.200 218.200 C 37.200 216.110,37.045 214.400,36.856 214.400 C 35.859 214.400,36.218 204.569,37.256 203.420 C 37.450 203.206,37.623 205.302,37.653 208.220 C 37.703 213.216,37.718 213.300,38.067 210.600 C 38.498 207.256,38.173 201.291,37.516 200.499 C 37.158 200.067,37.162 199.753,37.533 199.158 C 37.885 198.594,37.902 198.164,37.593 197.586 C 37.100 196.666,37.353 193.629,39.241 177.800 C 39.660 174.294,39.958 173.072,40.999 170.600 C 41.705 168.925,42.764 166.438,43.424 164.906 C 44.571 162.242,49.600 163.954,49.600 167.009 C 49.600 169.240,49.662 169.236,52.208 166.828 C 55.233 163.967,58.309 163.580,59.810 165.872 C 60.546 166.995,60.776 177.902,60.086 178.960 C 59.929 179.202,59.675 180.930,59.522 182.800 C 59.243 186.210,58.791 190.738,57.985 198.200 C 57.286 204.670,57.172 206.691,57.555 205.800 C 57.745 205.360,57.834 204.884,57.753 204.743 C 57.672 204.602,58.190 203.495,58.903 202.284 C 59.616 201.072,60.491 199.550,60.847 198.901 C 61.428 197.840,61.744 197.698,63.976 197.496 C 65.342 197.372,66.761 197.008,67.130 196.688 C 67.906 196.013,72.780 195.700,90.600 195.179 C 102.631 194.827,105.934 194.575,106.580 193.961 C 106.789 193.763,107.286 193.600,107.684 193.600 C 111.841 193.600,118.000 187.638,119.402 182.258 C 122.643 169.812,116.515 157.000,106.221 154.702 C 99.340 153.165,76.391 153.226,63.400 154.816 C 56.071 155.712,50.139 156.594,47.500 157.179 C 46.455 157.411,44.745 157.790,43.700 158.021 C 37.619 159.369,37.166 159.277,36.435 156.543 C 35.601 153.423,37.610 152.095,44.800 151.013 C 50.574 150.143,48.706 149.622,39.400 149.505 C 30.525 149.394,28.589 149.009,27.446 147.126 C 26.154 144.998,29.234 143.167,39.400 140.020 C 40.567 139.659,45.985 138.471,48.000 138.134 C 48.550 138.042,49.990 137.802,51.200 137.599 C 53.270 137.253,54.990 136.988,61.502 136.015 C 63.970 135.646,73.904 134.487,81.800 133.647 C 87.072 133.086,97.509 133.155,102.225 133.781 M203.600 137.415 C 208.596 138.573,216.886 142.587,218.800 144.776 C 218.910 144.902,219.692 145.521,220.539 146.152 C 223.409 148.293,230.800 155.981,230.800 156.826 C 230.800 157.940,228.842 159.572,227.486 159.587 C 226.198 159.602,225.028 158.923,222.100 156.466 C 219.875 154.598,219.357 154.810,220.970 156.927 C 225.299 162.610,225.958 169.600,222.164 169.600 C 220.825 169.600,216.770 167.118,211.244 162.915 C 210.057 162.013,208.617 161.033,208.044 160.738 C 207.470 160.443,206.910 160.111,206.800 160.001 C 204.249 157.441,195.788 154.936,193.119 155.949 C 192.613 156.141,191.480 156.522,190.600 156.797 C 187.744 157.688,183.671 161.122,181.107 164.800 C 180.417 165.790,179.751 166.690,179.626 166.800 C 179.103 167.263,176.797 171.707,175.580 174.600 C 174.901 176.212,172.907 182.656,172.485 184.600 C 170.824 192.253,170.398 195.467,170.408 200.277 C 170.416 204.399,171.102 209.047,172.626 215.306 C 172.774 215.914,173.054 216.510,173.248 216.630 C 173.441 216.749,173.600 217.276,173.600 217.800 C 173.600 218.324,173.780 218.864,174.000 219.000 C 174.220 219.136,174.400 219.501,174.400 219.812 C 174.400 220.122,174.850 221.327,175.401 222.488 C 181.502 235.361,191.233 242.658,201.231 241.856 C 205.580 241.507,207.751 241.165,208.180 240.759 C 208.389 240.562,208.879 240.400,209.268 240.400 C 209.657 240.400,210.632 240.031,211.435 239.580 C 212.935 238.738,214.687 239.339,214.281 240.557 C 214.082 241.153,216.411 243.024,216.736 242.529 C 217.727 241.017,222.847 238.000,224.420 238.000 C 225.286 238.000,227.600 240.689,227.600 241.695 C 227.600 242.373,226.094 245.963,225.622 246.411 C 223.121 248.782,221.864 250.469,222.367 250.780 C 224.067 251.830,216.550 257.706,212.000 258.883 C 211.230 259.082,209.970 259.447,209.200 259.694 C 207.277 260.312,195.785 260.560,193.900 260.026 C 193.075 259.791,191.635 259.399,190.700 259.154 C 187.711 258.369,182.227 256.084,181.000 255.113 C 180.780 254.939,179.700 254.212,178.600 253.498 C 177.130 252.544,176.567 251.912,176.475 251.114 C 176.381 250.302,175.673 249.532,173.675 248.067 C 172.204 246.988,169.380 244.448,167.400 242.423 C 162.926 237.847,162.800 237.709,162.800 237.425 C 162.800 237.297,162.260 236.628,161.600 235.937 C 160.940 235.246,160.400 234.438,160.400 234.141 C 160.400 233.843,160.199 233.600,159.953 233.600 C 159.697 233.600,159.585 233.189,159.691 232.637 C 159.831 231.905,159.732 231.728,159.278 231.902 C 158.805 232.084,158.736 231.911,158.945 231.076 C 159.156 230.237,159.086 230.069,158.605 230.253 C 158.220 230.401,158.000 230.252,158.000 229.843 C 158.000 229.489,157.842 229.200,157.649 229.200 C 157.455 229.200,157.074 228.615,156.801 227.900 C 156.528 227.185,155.961 225.824,155.539 224.876 C 155.035 223.742,154.843 222.646,154.978 221.676 C 155.124 220.622,155.095 220.485,154.874 221.196 C 154.403 222.716,153.942 221.546,154.131 219.313 C 154.221 218.261,154.216 217.895,154.122 218.500 C 153.764 220.786,153.215 219.476,153.284 216.500 C 153.323 214.795,153.108 211.870,152.807 210.000 C 152.105 205.651,152.043 192.437,152.704 188.200 C 153.546 182.802,153.966 180.751,155.200 176.000 C 156.342 171.608,156.197 171.154,154.882 175.000 C 152.436 182.155,149.810 201.741,151.183 202.590 C 151.723 202.923,151.739 209.200,151.200 209.200 C 150.969 209.200,150.800 207.941,150.800 206.224 C 150.800 204.587,150.620 203.136,150.400 203.000 C 149.862 202.668,149.867 191.729,150.405 191.397 C 150.628 191.259,150.777 190.214,150.737 189.073 C 150.697 187.933,150.788 186.460,150.939 185.800 C 151.265 184.374,151.410 183.596,151.795 181.200 C 152.276 178.204,153.954 172.265,155.017 169.800 C 155.302 169.140,155.855 167.790,156.246 166.800 C 157.305 164.122,160.123 158.891,161.741 156.600 C 162.656 155.304,163.003 154.863,165.321 152.048 C 167.333 149.604,172.875 144.401,173.467 144.400 C 173.723 144.400,173.993 144.255,174.067 144.077 C 174.442 143.167,180.749 139.666,183.693 138.734 C 189.709 136.829,198.547 136.243,203.600 137.415 M340.062 139.500 C 340.385 139.885,341.383 141.730,342.281 143.600 C 344.994 149.247,348.842 157.349,349.216 158.200 C 352.101 164.758,353.344 167.710,354.772 171.400 C 356.798 176.633,357.181 177.578,357.647 178.495 C 357.841 178.877,358.000 179.541,358.000 179.971 C 358.000 180.401,358.180 180.864,358.400 181.000 C 358.620 181.136,358.800 181.676,358.800 182.200 C 358.800 182.724,358.980 183.264,359.200 183.400 C 359.420 183.536,359.600 183.999,359.600 184.429 C 359.600 184.859,359.762 185.523,359.961 185.905 C 360.160 186.287,360.540 187.410,360.807 188.400 C 361.073 189.390,361.437 190.560,361.615 191.000 C 361.794 191.440,362.031 192.250,362.142 192.800 C 362.253 193.350,362.549 194.520,362.799 195.400 C 363.588 198.179,364.473 201.893,365.371 206.200 C 365.738 207.960,367.027 213.450,368.234 218.400 C 370.674 228.405,370.938 229.552,371.587 233.000 C 371.835 234.320,372.207 236.210,372.413 237.200 C 372.901 239.551,373.070 248.445,372.640 249.138 C 372.441 249.457,371.849 249.610,371.185 249.512 C 368.724 249.151,368.276 250.134,368.841 254.656 C 370.515 268.070,365.906 271.495,360.842 260.600 C 360.331 259.500,359.752 258.287,359.556 257.905 C 359.360 257.523,359.195 255.903,359.188 254.305 C 359.179 252.093,359.076 251.571,358.759 252.117 C 357.627 254.062,354.241 245.379,351.227 232.800 C 350.478 229.674,350.055 227.720,349.193 223.400 C 348.338 219.111,347.890 216.845,347.573 215.200 C 346.603 210.169,346.416 209.270,345.178 203.700 C 344.946 202.655,344.656 201.213,344.534 200.496 C 344.412 199.779,344.151 199.094,343.956 198.973 C 343.760 198.852,343.600 198.144,343.600 197.400 C 343.600 196.656,343.420 195.936,343.200 195.800 C 342.980 195.664,342.800 194.854,342.800 194.000 C 342.800 193.146,342.980 192.336,343.200 192.200 C 343.675 191.906,343.740 189.334,343.279 189.049 C 343.103 188.940,342.707 187.928,342.400 186.800 C 342.093 185.672,341.697 184.660,341.521 184.551 C 341.344 184.442,341.200 184.001,341.200 183.571 C 341.200 182.816,341.056 182.426,340.062 180.505 C 339.808 180.013,339.600 179.336,339.600 179.000 C 339.600 178.664,339.435 178.077,339.233 177.695 C 338.564 176.430,337.200 173.214,337.200 172.902 C 337.200 171.732,334.523 167.237,334.087 167.673 C 333.819 167.941,333.600 168.393,333.600 168.677 C 333.600 169.364,330.920 176.043,329.564 178.734 C 328.484 180.879,327.399 180.999,328.406 178.862 C 328.682 178.278,329.039 177.440,329.200 177.000 C 329.361 176.560,329.697 175.705,329.946 175.100 C 330.524 173.700,331.105 172.246,331.546 171.100 C 332.111 169.635,332.769 168.067,333.267 167.001 C 333.524 166.451,333.646 165.912,333.537 165.803 C 333.428 165.695,332.744 166.909,332.016 168.503 C 329.958 173.011,325.699 181.608,324.537 183.600 C 323.959 184.590,323.151 185.993,322.741 186.717 C 321.325 189.217,318.246 193.808,316.293 196.334 C 315.215 197.727,314.408 198.941,314.498 199.031 C 314.771 199.304,319.551 194.375,321.407 191.906 C 323.122 189.625,324.431 189.310,322.825 191.564 C 322.371 192.202,322.000 192.887,322.000 193.086 C 322.000 193.286,321.678 193.798,321.283 194.225 C 320.889 194.651,319.999 195.810,319.306 196.800 C 316.544 200.742,312.435 204.457,308.829 206.273 C 305.657 207.871,305.632 207.872,303.277 206.531 C 302.245 205.944,299.690 204.566,297.600 203.470 C 292.211 200.643,291.748 200.269,291.464 198.516 C 291.329 197.687,290.514 195.567,289.653 193.804 C 288.792 192.042,287.819 189.970,287.492 189.200 C 287.164 188.430,285.778 185.145,284.410 181.900 C 282.082 176.376,281.241 175.025,281.171 176.700 C 281.126 177.773,280.016 184.188,279.180 188.200 C 278.951 189.300,278.603 191.010,278.407 192.000 C 278.211 192.990,277.844 194.610,277.592 195.600 C 277.341 196.590,277.040 198.076,276.925 198.903 C 276.810 199.729,276.555 200.505,276.358 200.626 C 276.161 200.748,276.000 201.366,276.000 202.000 C 276.000 202.634,275.820 203.264,275.600 203.400 C 275.380 203.536,275.200 204.089,275.200 204.629 C 275.200 205.169,275.040 205.923,274.845 206.305 C 274.649 206.687,273.921 208.800,273.227 211.000 C 272.532 213.200,271.816 215.360,271.636 215.800 C 269.285 221.525,268.414 223.508,266.984 226.400 C 266.059 228.270,264.650 230.970,263.853 232.400 C 262.451 234.917,260.651 238.558,259.998 240.200 C 259.823 240.640,259.302 241.853,258.840 242.896 C 258.378 243.938,258.000 244.946,258.000 245.134 C 258.000 246.377,256.701 247.975,255.998 247.599 C 255.588 247.379,254.630 247.200,253.869 247.200 C 250.900 247.200,251.708 240.928,255.633 233.505 C 256.148 232.532,256.090 231.991,255.495 232.219 C 255.217 232.326,254.734 232.995,254.421 233.706 C 254.108 234.418,252.896 236.598,251.726 238.551 C 250.557 240.504,249.600 242.176,249.600 242.266 C 249.600 243.594,243.076 251.600,241.994 251.600 C 240.231 251.600,239.544 245.770,240.793 241.408 C 241.047 240.524,241.398 239.260,241.573 238.600 C 242.333 235.738,242.913 233.745,243.200 233.000 C 243.370 232.560,243.741 231.390,244.024 230.400 C 244.307 229.410,244.688 228.429,244.870 228.220 C 245.051 228.011,245.200 227.437,245.200 226.944 C 245.200 226.451,245.380 225.936,245.600 225.800 C 245.820 225.664,246.000 225.149,246.000 224.656 C 246.000 224.163,246.143 223.589,246.318 223.380 C 246.493 223.171,246.867 222.280,247.148 221.400 C 247.428 220.520,248.169 218.450,248.793 216.800 C 249.417 215.150,250.948 211.100,252.194 207.800 C 253.440 204.500,254.619 201.440,254.812 201.000 C 255.006 200.560,255.732 198.400,256.427 196.200 C 257.121 194.000,257.849 191.887,258.045 191.505 C 258.240 191.123,258.400 190.369,258.400 189.829 C 258.400 189.289,258.580 188.736,258.800 188.600 C 259.020 188.464,259.200 187.744,259.200 187.000 C 259.200 186.256,259.356 185.551,259.547 185.433 C 259.738 185.315,260.005 184.449,260.141 183.509 C 260.276 182.569,260.572 180.900,260.797 179.800 C 262.020 173.838,263.319 164.801,263.941 157.928 C 264.284 154.144,264.609 153.518,266.816 152.392 C 268.242 151.664,278.091 148.146,279.895 147.720 C 282.066 147.207,293.460 159.577,298.089 167.472 C 298.710 168.532,300.705 172.393,302.522 176.051 L 305.825 182.701 307.031 180.851 C 309.847 176.531,313.617 167.798,317.415 156.800 C 319.178 151.693,320.343 148.404,321.028 146.600 C 321.195 146.160,321.625 145.001,321.984 144.024 C 322.665 142.170,322.830 142.066,326.600 141.142 C 328.925 140.572,331.821 140.051,334.923 139.644 C 336.420 139.448,337.755 139.178,337.890 139.044 C 338.361 138.572,339.482 138.808,340.062 139.500 M121.286 176.634 C 121.203 181.298,120.274 185.827,119.166 186.980 C 118.965 187.189,118.800 187.544,118.800 187.769 C 118.800 188.596,119.914 186.530,120.757 184.138 C 121.505 182.018,121.608 180.989,121.499 176.738 L 121.373 171.800 121.286 176.634 M66.033 199.750 C 66.492 200.165,89.200 200.446,89.200 200.038 C 89.200 199.731,85.713 199.600,77.533 199.600 C 71.117 199.600,65.942 199.668,66.033 199.750 M303.935 205.226 C 304.525 205.462,305.116 205.457,305.535 205.212 C 306.042 204.916,305.820 204.827,304.600 204.838 C 303.201 204.849,303.117 204.898,303.935 205.226 M152.400 211.600 C 152.400 212.480,152.220 213.200,152.000 213.200 C 151.780 213.200,151.600 212.480,151.600 211.600 C 151.600 210.720,151.780 210.000,152.000 210.000 C 152.220 210.000,152.400 210.720,152.400 211.600 M153.200 215.200 C 153.200 215.860,153.020 216.400,152.800 216.400 C 152.580 216.400,152.400 215.860,152.400 215.200 C 152.400 214.540,152.580 214.000,152.800 214.000 C 153.020 214.000,153.200 214.540,153.200 215.200 M356.509 237.600 C 356.509 238.590,356.587 238.995,356.682 238.500 C 356.778 238.005,356.778 237.195,356.682 236.700 C 356.587 236.205,356.509 236.610,356.509 237.600 M357.314 242.600 C 357.317 243.700,357.395 244.103,357.487 243.495 C 357.579 242.886,357.577 241.986,357.482 241.495 C 357.387 241.003,357.311 241.500,357.314 242.600 M358.124 248.200 C 358.126 249.520,358.201 250.012,358.290 249.293 C 358.379 248.574,358.377 247.494,358.286 246.893 C 358.195 246.292,358.122 246.880,358.124 248.200 " stroke="none" fill="#040454" fill-rule="evenodd"></path><path id="path2" d="M81.800 133.647 C 73.904 134.487,63.970 135.646,61.502 136.015 C 54.990 136.988,53.270 137.253,51.200 137.599 C 49.990 137.802,48.550 138.042,48.000 138.134 C 45.985 138.471,40.567 139.659,39.400 140.020 C 29.234 143.167,26.154 144.998,27.446 147.126 C 28.589 149.009,30.525 149.394,39.400 149.505 C 48.706 149.622,50.574 150.143,44.800 151.013 C 37.610 152.095,35.601 153.423,36.435 156.543 C 37.166 159.277,37.619 159.369,43.700 158.021 C 44.745 157.790,46.455 157.411,47.500 157.179 C 50.638 156.484,57.743 155.467,64.200 154.790 C 66.400 154.559,68.380 154.301,68.600 154.217 C 69.358 153.926,65.394 154.036,62.600 154.384 C 52.916 155.589,50.026 156.072,43.200 157.627 C 38.575 158.680,37.755 158.619,37.255 157.186 C 36.073 153.796,37.887 152.580,45.908 151.382 C 47.786 151.102,48.884 150.285,48.551 149.416 C 48.374 148.955,47.308 148.897,42.596 149.087 C 26.377 149.745,22.739 145.313,36.400 141.541 C 37.170 141.329,38.430 140.973,39.200 140.751 C 44.421 139.244,54.358 137.486,65.800 136.046 C 87.173 133.355,96.265 133.070,105.600 134.795 C 114.844 136.504,119.304 138.157,124.943 141.961 C 135.046 148.779,139.627 159.514,139.638 176.400 C 139.652 196.344,129.016 209.230,109.600 212.789 C 108.170 213.051,106.190 213.422,105.200 213.614 C 101.286 214.373,92.606 214.827,89.400 214.442 C 85.739 214.002,84.789 214.373,86.400 215.613 C 86.950 216.036,87.518 216.386,87.662 216.391 C 87.806 216.396,90.544 217.655,93.747 219.188 C 96.949 220.721,101.331 222.810,103.485 223.829 C 120.116 231.700,128.800 236.931,128.800 239.078 C 128.800 239.778,127.539 239.740,126.576 239.013 C 125.358 238.091,124.968 238.301,125.952 239.349 C 126.759 240.208,126.785 240.358,126.222 240.921 C 125.259 241.884,125.391 242.125,128.722 245.497 C 134.505 251.350,135.356 256.020,130.432 254.883 C 127.074 254.108,124.199 252.488,122.404 250.358 C 119.705 247.158,103.535 237.600,100.820 237.600 C 100.583 237.600,100.032 237.420,99.595 237.200 C 99.158 236.980,98.440 236.618,98.000 236.397 C 97.560 236.175,97.200 236.141,97.200 236.322 C 97.200 236.658,98.023 237.141,104.000 240.308 C 109.670 243.313,110.789 243.964,114.159 246.219 C 120.218 250.275,120.341 251.198,114.500 248.774 C 113.663 248.426,113.015 248.165,110.700 247.241 C 101.983 243.762,84.946 235.194,74.500 229.035 C 72.367 227.778,72.000 227.395,72.000 226.427 C 72.000 225.628,71.674 225.081,70.900 224.580 C 68.072 222.749,62.001 217.421,60.200 215.191 C 59.100 213.828,57.813 212.241,57.341 211.664 L 56.481 210.614 56.015 212.343 C 54.967 216.237,54.411 221.465,54.160 229.800 L 53.896 238.600 54.948 241.169 C 56.217 244.269,56.292 246.012,55.198 247.002 C 54.756 247.402,54.351 247.655,54.298 247.564 C 53.496 246.215,53.200 245.477,53.200 244.829 C 53.200 244.399,53.020 243.936,52.800 243.800 C 52.580 243.664,52.400 243.034,52.400 242.400 C 52.400 241.766,52.220 241.136,52.000 241.000 C 51.436 240.652,51.523 242.556,52.199 245.390 C 52.747 247.684,52.735 247.817,51.919 248.686 C 51.191 249.461,51.135 249.740,51.533 250.612 C 52.507 252.751,50.307 255.600,47.680 255.600 C 45.745 255.600,44.369 254.011,42.832 249.997 C 40.936 245.048,40.089 245.031,41.226 249.964 C 41.879 252.795,41.058 252.776,39.695 249.928 C 37.060 244.420,35.902 235.494,37.670 234.320 C 38.506 233.765,38.520 233.648,38.026 231.322 C 37.462 228.667,37.663 218.983,38.393 213.600 C 39.355 206.504,39.378 198.073,38.437 197.303 C 37.650 196.658,37.611 196.419,37.969 194.400 C 38.183 193.190,38.756 188.330,39.241 183.600 C 40.142 174.821,40.475 173.380,43.065 167.055 L 44.189 164.311 46.137 164.542 C 48.686 164.844,49.200 165.327,49.200 167.425 C 49.200 169.909,49.809 169.960,52.139 167.670 C 55.260 164.603,57.181 164.090,58.945 165.855 C 60.290 167.199,60.337 169.853,59.212 180.877 C 58.778 185.125,58.227 190.580,57.987 193.000 C 57.746 195.420,57.381 198.604,57.175 200.077 C 56.468 205.123,56.920 210.020,57.823 207.106 C 58.087 206.254,59.637 202.741,61.133 199.600 C 61.796 198.208,61.820 198.198,65.165 197.895 C 67.015 197.728,68.727 197.426,68.969 197.226 C 70.549 195.915,87.398 195.584,87.731 196.857 C 87.957 197.723,87.997 197.726,95.079 197.461 C 110.472 196.883,117.972 193.236,121.277 184.722 C 122.981 180.331,122.256 168.100,120.315 168.503 C 120.058 168.556,119.783 168.240,119.703 167.800 C 119.308 165.608,116.960 161.074,115.289 159.273 C 113.488 157.332,110.374 155.461,107.545 154.621 C 105.071 153.886,103.853 153.788,104.800 154.400 C 105.130 154.613,105.816 154.791,106.325 154.794 C 107.670 154.803,112.030 157.006,113.943 158.644 C 120.255 164.047,122.154 179.021,117.502 186.706 C 115.659 189.748,110.175 193.600,107.684 193.600 C 107.286 193.600,106.789 193.763,106.580 193.961 C 105.934 194.575,102.631 194.827,90.600 195.179 C 72.780 195.700,67.906 196.013,67.130 196.688 C 66.761 197.008,65.342 197.372,63.976 197.496 C 61.744 197.698,61.428 197.840,60.847 198.901 C 60.491 199.550,59.616 201.072,58.903 202.284 C 58.190 203.495,57.672 204.602,57.753 204.743 C 57.834 204.884,57.745 205.360,57.555 205.800 C 57.172 206.691,57.286 204.670,57.985 198.200 C 58.791 190.738,59.243 186.210,59.522 182.800 C 59.675 180.930,59.929 179.202,60.086 178.960 C 60.776 177.902,60.546 166.995,59.810 165.872 C 58.309 163.580,55.233 163.967,52.208 166.828 C 49.662 169.236,49.600 169.240,49.600 167.009 C 49.600 163.954,44.571 162.242,43.424 164.906 C 39.374 174.311,39.866 172.354,38.416 184.800 C 37.364 193.820,37.172 196.801,37.593 197.586 C 37.902 198.164,37.885 198.594,37.533 199.158 C 37.162 199.753,37.158 200.067,37.516 200.499 C 38.173 201.291,38.498 207.256,38.067 210.600 C 37.718 213.300,37.703 213.216,37.653 208.220 C 37.623 205.302,37.450 203.206,37.256 203.420 C 36.218 204.569,35.859 214.400,36.856 214.400 C 37.045 214.400,37.200 216.110,37.200 218.200 C 37.200 220.467,37.039 222.000,36.800 222.000 C 36.580 222.000,36.400 222.540,36.400 223.200 C 36.400 223.860,36.555 224.400,36.743 224.400 C 37.537 224.400,37.560 233.325,36.769 234.330 C 35.981 235.333,35.982 235.507,36.840 242.101 C 37.810 249.550,41.548 256.009,42.450 251.795 C 42.648 250.866,42.716 250.801,42.753 251.500 C 42.779 251.995,42.980 252.400,43.200 252.400 C 43.420 252.400,43.600 252.688,43.600 253.040 C 43.600 253.895,45.837 255.944,47.123 256.267 C 49.656 256.902,53.035 253.218,52.126 250.810 C 51.716 249.724,51.754 249.511,52.429 249.089 C 52.853 248.824,53.200 248.289,53.200 247.900 C 53.200 247.300,53.318 247.267,53.978 247.679 C 56.127 249.021,57.188 244.868,55.574 241.435 C 54.655 239.479,54.636 222.633,55.547 217.400 C 55.776 216.080,56.107 214.190,56.282 213.200 L 56.600 211.400 57.503 212.666 C 58.000 213.363,58.517 214.485,58.652 215.160 C 58.787 215.835,59.063 216.284,59.266 216.159 C 59.747 215.862,60.857 216.785,60.572 217.245 C 60.451 217.440,60.588 217.603,60.876 217.608 C 61.164 217.612,62.120 218.249,63.000 219.024 C 63.880 219.799,65.590 221.191,66.800 222.117 C 68.010 223.043,69.239 224.026,69.531 224.303 C 69.823 224.579,70.418 224.995,70.852 225.228 C 71.286 225.460,71.612 225.954,71.575 226.325 C 71.435 227.733,71.695 227.999,75.300 230.146 C 82.419 234.385,99.755 243.168,107.600 246.510 C 108.370 246.839,109.810 247.465,110.800 247.903 C 115.595 250.025,120.400 251.366,120.400 250.582 C 120.400 250.084,118.285 248.313,115.340 246.345 C 113.613 245.191,112.140 244.101,112.067 243.923 C 111.993 243.746,111.588 243.600,111.167 243.600 C 110.745 243.600,110.400 243.433,110.400 243.229 C 110.400 243.025,110.085 242.776,109.700 242.676 C 109.173 242.538,109.223 242.481,109.900 242.446 C 110.395 242.421,110.800 242.536,110.800 242.702 C 110.800 242.869,111.385 243.259,112.100 243.569 C 114.771 244.727,120.151 248.628,121.944 250.706 C 122.965 251.889,124.340 253.093,125.000 253.382 C 125.660 253.671,127.053 254.288,128.096 254.753 C 135.236 257.942,136.154 252.378,129.605 245.605 C 128.113 244.062,126.692 242.800,126.446 242.800 C 126.201 242.800,126.000 242.621,126.000 242.403 C 126.000 241.682,127.731 240.000,128.472 240.000 C 129.671 240.000,129.352 238.298,127.900 236.948 C 126.643 235.779,122.571 232.800,122.231 232.800 C 122.138 232.800,120.564 231.939,118.732 230.887 C 116.899 229.835,113.690 228.140,111.600 227.120 C 104.321 223.569,94.986 219.097,93.000 218.209 C 86.116 215.133,85.714 214.660,90.300 215.033 C 93.650 215.306,103.808 214.669,107.267 213.970 C 110.175 213.382,115.202 212.055,116.300 211.585 C 116.795 211.373,117.605 211.043,118.100 210.852 C 120.074 210.089,124.400 207.790,124.400 207.504 C 124.400 207.337,124.625 207.197,124.900 207.193 C 127.867 207.150,136.904 196.008,138.557 190.355 C 138.711 189.830,139.128 188.410,139.484 187.200 C 141.180 181.441,140.245 165.921,137.755 158.502 C 131.408 139.596,111.019 130.539,81.800 133.647 M188.200 137.601 C 182.244 138.940,174.773 142.363,174.067 144.077 C 173.993 144.255,173.723 144.400,173.467 144.400 C 172.875 144.401,167.333 149.604,165.321 152.048 C 163.003 154.863,162.656 155.304,161.741 156.600 C 160.123 158.891,157.305 164.122,156.246 166.800 C 155.855 167.790,155.302 169.140,155.017 169.800 C 153.954 172.265,152.276 178.204,151.795 181.200 C 151.410 183.596,151.265 184.374,150.939 185.800 C 150.788 186.460,150.697 187.933,150.737 189.073 C 150.777 190.214,150.628 191.259,150.405 191.397 C 149.867 191.729,149.862 202.668,150.400 203.000 C 150.620 203.136,150.800 204.587,150.800 206.224 C 150.800 207.941,150.969 209.200,151.200 209.200 C 151.739 209.200,151.723 202.923,151.183 202.590 C 149.810 201.741,152.436 182.155,154.882 175.000 C 156.197 171.154,156.342 171.608,155.200 176.000 C 153.966 180.751,153.546 182.802,152.704 188.200 C 152.043 192.437,152.105 205.651,152.807 210.000 C 153.108 211.870,153.323 214.795,153.284 216.500 C 153.215 219.476,153.764 220.786,154.122 218.500 C 154.216 217.895,154.221 218.261,154.131 219.313 C 153.942 221.546,154.403 222.716,154.874 221.196 C 155.095 220.485,155.124 220.622,154.978 221.676 C 154.843 222.646,155.035 223.742,155.539 224.876 C 155.961 225.824,156.528 227.185,156.801 227.900 C 157.074 228.615,157.455 229.200,157.649 229.200 C 157.842 229.200,158.000 229.489,158.000 229.843 C 158.000 230.252,158.220 230.401,158.605 230.253 C 159.086 230.069,159.156 230.237,158.945 231.076 C 158.736 231.911,158.805 232.084,159.278 231.902 C 159.732 231.728,159.831 231.905,159.691 232.637 C 159.585 233.189,159.697 233.600,159.953 233.600 C 160.199 233.600,160.400 233.843,160.400 234.141 C 160.400 234.438,160.940 235.246,161.600 235.937 C 162.260 236.628,162.800 237.297,162.800 237.425 C 162.800 237.709,162.926 237.847,167.400 242.423 C 169.380 244.448,172.204 246.988,173.675 248.067 C 175.673 249.532,176.381 250.302,176.475 251.114 C 176.567 251.912,177.130 252.544,178.600 253.498 C 179.700 254.212,180.780 254.939,181.000 255.113 C 182.227 256.084,187.711 258.369,190.700 259.154 C 191.635 259.399,193.075 259.791,193.900 260.026 C 195.785 260.560,207.277 260.312,209.200 259.694 C 209.970 259.447,211.230 259.082,212.000 258.883 C 216.550 257.706,224.067 251.830,222.367 250.780 C 221.864 250.469,223.121 248.782,225.622 246.411 C 226.094 245.963,227.600 242.373,227.600 241.695 C 227.600 240.689,225.286 238.000,224.420 238.000 C 222.847 238.000,217.727 241.017,216.736 242.529 C 216.411 243.024,214.082 241.153,214.281 240.557 C 214.687 239.339,212.935 238.738,211.435 239.580 C 210.632 240.031,209.657 240.400,209.268 240.400 C 208.879 240.400,208.389 240.562,208.180 240.759 C 207.751 241.165,205.580 241.507,201.231 241.856 C 191.233 242.658,181.502 235.361,175.401 222.488 C 174.850 221.327,174.400 220.122,174.400 219.812 C 174.400 219.501,174.220 219.136,174.000 219.000 C 173.780 218.864,173.600 218.324,173.600 217.800 C 173.600 217.276,173.441 216.749,173.248 216.630 C 173.054 216.510,172.774 215.914,172.626 215.306 C 171.102 209.047,170.416 204.399,170.408 200.277 C 170.398 195.467,170.824 192.253,172.485 184.600 C 172.907 182.656,174.901 176.212,175.580 174.600 C 176.797 171.707,179.103 167.263,179.626 166.800 C 179.751 166.690,180.417 165.790,181.107 164.800 C 183.671 161.122,187.744 157.688,190.600 156.797 C 191.480 156.522,192.613 156.141,193.119 155.949 C 195.788 154.936,204.249 157.441,206.800 160.001 C 206.910 160.111,207.470 160.443,208.044 160.738 C 208.617 161.033,210.057 162.013,211.244 162.915 C 216.770 167.118,220.825 169.600,222.164 169.600 C 225.958 169.600,225.299 162.610,220.970 156.927 C 219.357 154.810,219.875 154.598,222.100 156.466 C 225.028 158.923,226.198 159.602,227.486 159.587 C 228.842 159.572,230.800 157.940,230.800 156.826 C 230.800 155.981,223.409 148.293,220.539 146.152 C 219.692 145.521,218.910 144.902,218.800 144.776 C 213.634 138.869,198.422 135.302,188.200 137.601 M203.800 138.042 C 207.676 139.041,211.177 140.499,215.045 142.724 C 218.697 144.825,230.400 155.588,230.400 156.846 C 230.400 157.504,228.328 159.199,227.523 159.200 C 226.557 159.200,224.068 157.658,222.202 155.903 C 219.310 153.182,218.406 154.233,220.757 157.584 C 223.902 162.069,224.913 165.745,223.596 167.910 C 222.588 169.568,221.558 169.448,218.354 167.301 C 215.487 165.379,212.178 163.030,212.000 162.790 C 211.890 162.641,211.361 162.288,210.825 162.006 C 210.289 161.723,209.659 161.330,209.425 161.131 C 194.434 148.422,178.843 157.682,172.270 183.200 C 170.442 190.297,169.416 197.946,169.759 201.925 C 170.786 213.830,174.376 223.913,180.394 231.793 C 182.986 235.187,190.093 240.800,191.798 240.800 C 192.103 240.800,192.452 240.960,192.573 241.156 C 193.379 242.461,207.826 242.453,208.633 241.147 C 208.751 240.956,209.169 240.800,209.562 240.800 C 209.955 240.800,210.860 240.509,211.572 240.154 C 213.042 239.421,214.110 239.903,213.267 240.920 C 213.014 241.224,212.895 241.562,213.003 241.670 C 213.112 241.778,212.975 241.876,212.700 241.887 C 212.425 241.899,211.030 242.477,209.600 243.172 C 207.094 244.390,207.058 244.428,208.600 244.229 C 209.480 244.115,211.153 243.547,212.319 242.966 C 214.279 241.989,214.491 241.958,215.150 242.555 C 216.061 243.380,216.469 243.367,217.425 242.483 C 222.482 237.810,227.268 237.663,226.656 242.200 C 226.270 245.071,223.050 249.163,219.592 251.178 C 217.447 252.428,214.692 253.711,213.477 254.025 C 212.775 254.206,211.480 254.560,210.600 254.811 C 205.451 256.278,200.878 256.583,195.800 255.797 C 193.380 255.423,190.680 255.048,189.800 254.963 L 188.200 254.810 189.585 255.441 C 194.658 257.751,208.539 257.373,214.296 254.767 C 215.228 254.345,216.155 254.000,216.355 254.000 C 216.555 254.000,217.753 253.456,219.017 252.791 C 221.978 251.234,222.214 251.548,219.812 253.850 C 214.318 259.114,202.678 261.282,192.295 258.975 C 185.913 257.557,177.375 252.977,176.926 250.731 C 176.764 249.921,176.007 249.104,174.301 247.896 C 169.092 244.210,163.024 237.135,160.087 231.323 C 159.399 229.961,158.662 228.521,158.450 228.123 C 158.238 227.725,157.672 226.320,157.193 225.000 C 156.714 223.680,156.173 222.240,155.991 221.800 C 155.809 221.360,155.573 220.550,155.467 220.000 C 155.361 219.450,155.008 217.920,154.683 216.600 C 151.957 205.538,151.975 191.599,154.731 180.200 C 154.944 179.320,155.241 177.970,155.391 177.200 C 155.542 176.430,155.810 175.440,155.987 175.000 C 156.164 174.560,156.527 173.390,156.793 172.400 C 157.060 171.410,157.440 170.287,157.639 169.905 C 158.127 168.966,158.095 168.000,157.575 168.000 C 157.342 168.000,156.630 169.125,155.994 170.500 C 155.357 171.875,154.828 172.683,154.818 172.295 C 154.808 171.907,154.980 171.232,155.200 170.795 C 155.420 170.358,155.780 169.642,156.000 169.205 C 156.220 168.768,156.400 168.163,156.400 167.861 C 156.400 166.664,161.066 158.350,163.729 154.800 C 173.724 141.478,190.280 134.554,203.800 138.042 M337.890 139.044 C 337.755 139.178,336.420 139.448,334.923 139.644 C 331.821 140.051,328.925 140.572,326.600 141.142 C 322.830 142.066,322.665 142.170,321.984 144.024 C 321.625 145.001,321.195 146.160,321.028 146.600 C 320.343 148.404,319.178 151.693,317.415 156.800 C 313.617 167.798,309.847 176.531,307.031 180.851 L 305.825 182.701 302.522 176.051 C 296.588 164.103,291.326 156.850,283.660 150.053 C 280.361 147.129,281.250 147.152,273.643 149.787 C 264.526 152.944,264.382 153.065,263.941 157.928 C 263.319 164.801,262.020 173.838,260.797 179.800 C 260.572 180.900,260.276 182.569,260.141 183.509 C 260.005 184.449,259.738 185.315,259.547 185.433 C 259.356 185.551,259.200 186.256,259.200 187.000 C 259.200 187.744,259.020 188.464,258.800 188.600 C 258.580 188.736,258.400 189.289,258.400 189.829 C 258.400 190.369,258.240 191.123,258.045 191.505 C 257.849 191.887,257.121 194.000,256.427 196.200 C 255.732 198.400,255.006 200.560,254.812 201.000 C 254.619 201.440,253.440 204.500,252.194 207.800 C 250.948 211.100,249.417 215.150,248.793 216.800 C 248.169 218.450,247.428 220.520,247.148 221.400 C 246.867 222.280,246.493 223.171,246.318 223.380 C 246.143 223.589,246.000 224.163,246.000 224.656 C 246.000 225.149,245.820 225.664,245.600 225.800 C 245.380 225.936,245.200 226.451,245.200 226.944 C 245.200 227.437,245.051 228.011,244.870 228.220 C 244.688 228.429,244.307 229.410,244.024 230.400 C 243.741 231.390,243.370 232.560,243.200 233.000 C 242.913 233.745,242.333 235.738,241.573 238.600 C 241.398 239.260,241.047 240.524,240.793 241.408 C 239.544 245.770,240.231 251.600,241.994 251.600 C 243.076 251.600,249.600 243.594,249.600 242.266 C 249.600 242.176,250.557 240.504,251.726 238.551 C 252.896 236.598,254.108 234.418,254.421 233.706 C 254.734 232.995,255.217 232.326,255.495 232.219 C 256.090 231.991,256.148 232.532,255.633 233.505 C 251.708 240.928,250.900 247.200,253.869 247.200 C 254.630 247.200,255.588 247.379,255.998 247.599 C 256.701 247.975,258.000 246.377,258.000 245.134 C 258.000 244.946,258.378 243.938,258.840 242.896 C 259.302 241.853,259.823 240.640,259.998 240.200 C 260.651 238.558,262.451 234.917,263.853 232.400 C 264.650 230.970,266.059 228.270,266.984 226.400 C 268.414 223.508,269.285 221.525,271.636 215.800 C 271.816 215.360,272.532 213.200,273.227 211.000 C 273.921 208.800,274.649 206.687,274.845 206.305 C 275.040 205.923,275.200 205.169,275.200 204.629 C 275.200 204.089,275.380 203.536,275.600 203.400 C 275.820 203.264,276.000 202.634,276.000 202.000 C 276.000 201.366,276.161 200.748,276.358 200.626 C 276.555 200.505,276.810 199.729,276.925 198.903 C 277.040 198.076,277.341 196.590,277.592 195.600 C 277.844 194.610,278.211 192.990,278.407 192.000 C 278.603 191.010,278.951 189.300,279.180 188.200 C 280.016 184.188,281.126 177.773,281.171 176.700 C 281.241 175.025,282.082 176.376,284.410 181.900 C 285.778 185.145,287.164 188.430,287.492 189.200 C 287.819 189.970,288.792 192.042,289.653 193.804 C 290.514 195.567,291.329 197.687,291.464 198.516 C 291.748 200.269,292.211 200.643,297.600 203.470 C 299.690 204.566,302.245 205.944,303.277 206.531 C 305.632 207.872,305.657 207.871,308.829 206.273 C 313.427 203.957,320.532 196.866,319.172 195.951 C 318.700 195.634,318.716 195.587,319.263 195.683 C 319.893 195.794,321.998 193.778,322.000 193.062 C 322.000 192.876,322.371 192.202,322.825 191.564 C 324.431 189.310,323.122 189.625,321.407 191.906 C 319.551 194.375,314.771 199.304,314.498 199.031 C 314.408 198.941,315.215 197.727,316.293 196.334 C 318.246 193.808,321.325 189.217,322.741 186.717 C 323.151 185.993,323.959 184.590,324.537 183.600 C 325.699 181.608,329.958 173.011,332.016 168.503 C 332.744 166.909,333.428 165.695,333.537 165.803 C 333.646 165.912,333.524 166.451,333.267 167.001 C 332.769 168.067,332.111 169.635,331.546 171.100 C 331.105 172.246,330.524 173.700,329.946 175.100 C 329.697 175.705,329.361 176.560,329.200 177.000 C 329.039 177.440,328.682 178.278,328.406 178.862 C 327.399 180.999,328.484 180.879,329.564 178.734 C 330.920 176.043,333.600 169.364,333.600 168.677 C 333.600 168.393,333.819 167.941,334.087 167.673 C 334.523 167.237,337.200 171.732,337.200 172.902 C 337.200 173.214,338.564 176.430,339.233 177.695 C 339.435 178.077,339.600 178.664,339.600 179.000 C 339.600 179.336,339.808 180.013,340.062 180.505 C 341.056 182.426,341.200 182.816,341.200 183.571 C 341.200 184.001,341.344 184.442,341.521 184.551 C 341.697 184.660,342.093 185.672,342.400 186.800 C 342.707 187.928,343.103 188.940,343.279 189.049 C 343.740 189.334,343.675 191.906,343.200 192.200 C 342.980 192.336,342.800 193.146,342.800 194.000 C 342.800 194.854,342.980 195.664,343.200 195.800 C 343.420 195.936,343.600 196.656,343.600 197.400 C 343.600 198.144,343.760 198.852,343.956 198.973 C 344.151 199.094,344.412 199.779,344.534 200.496 C 344.656 201.213,344.946 202.655,345.178 203.700 C 346.416 209.270,346.603 210.169,347.573 215.200 C 347.890 216.845,348.338 219.111,349.193 223.400 C 351.391 234.419,353.315 241.630,355.702 247.800 C 357.290 251.901,358.165 253.137,358.759 252.117 C 359.076 251.571,359.179 252.093,359.188 254.305 C 359.195 255.903,359.360 257.523,359.556 257.905 C 359.752 258.287,360.331 259.500,360.842 260.600 C 364.225 267.877,368.095 269.569,368.619 263.999 L 368.788 262.200 368.294 263.889 C 366.388 270.407,360.761 263.572,359.599 253.330 C 358.495 243.589,357.256 236.016,354.767 223.800 C 354.543 222.700,354.259 221.124,354.137 220.297 C 354.015 219.471,353.755 218.695,353.558 218.574 C 353.361 218.452,353.200 217.654,353.200 216.800 C 353.200 215.946,353.020 215.136,352.800 215.000 C 352.559 214.851,352.400 215.388,352.400 216.353 C 352.400 217.233,352.580 218.064,352.800 218.200 C 353.020 218.336,353.200 219.189,353.200 220.095 C 353.200 221.002,353.376 222.296,353.590 222.972 C 353.805 223.647,354.088 225.237,354.220 226.505 C 354.376 228.009,354.609 228.718,354.891 228.544 C 355.155 228.381,355.208 228.464,355.027 228.757 C 354.863 229.021,355.061 231.434,355.465 234.119 C 356.112 238.416,356.233 238.808,356.477 237.400 C 356.682 236.212,356.713 236.418,356.598 238.200 C 356.513 239.520,356.611 241.860,356.817 243.400 C 357.317 247.150,357.631 251.195,357.344 250.200 C 357.218 249.760,356.974 249.220,356.802 249.000 C 356.481 248.589,354.511 242.799,353.603 239.600 C 352.594 236.047,352.415 235.350,351.591 231.800 C 350.441 226.840,350.082 225.197,349.841 223.800 C 349.050 219.197,345.354 201.910,344.497 198.800 C 343.434 194.943,343.355 194.115,343.812 191.581 C 344.115 189.906,342.104 183.443,338.746 175.300 C 338.497 174.695,338.157 173.840,337.990 173.400 C 337.823 172.960,337.127 171.377,336.443 169.882 C 335.760 168.387,335.200 166.992,335.200 166.782 C 335.200 166.572,335.063 166.400,334.895 166.400 C 334.727 166.400,334.412 166.007,334.195 165.526 C 333.768 164.581,332.800 164.057,332.800 164.771 C 332.800 165.012,332.422 166.062,331.960 167.104 C 331.498 168.147,330.974 169.360,330.795 169.800 C 323.853 186.853,312.096 203.045,305.797 204.227 C 304.074 204.550,294.000 199.537,294.000 198.356 C 294.000 195.285,288.232 182.000,286.898 182.000 C 286.169 182.000,286.410 182.699,288.832 187.626 C 291.669 193.395,292.004 194.305,291.968 196.149 C 291.951 197.057,291.845 197.530,291.732 197.200 C 291.620 196.870,290.932 195.340,290.205 193.800 C 289.477 192.260,288.593 190.325,288.241 189.500 C 287.888 188.675,287.344 187.415,287.031 186.700 C 286.718 185.985,286.074 184.410,285.599 183.200 C 284.169 179.556,281.891 174.800,281.575 174.800 C 281.168 174.800,280.400 177.098,280.400 178.313 C 280.400 178.860,280.234 179.958,280.031 180.754 C 279.829 181.549,279.451 183.460,279.192 185.000 C 278.933 186.540,278.575 188.430,278.396 189.200 C 278.216 189.970,277.874 191.545,277.635 192.700 C 276.719 197.123,276.290 199.034,275.997 200.000 C 275.830 200.550,275.500 201.720,275.265 202.600 C 272.683 212.268,268.527 222.793,264.131 230.800 C 261.119 236.285,259.383 239.955,257.600 244.605 L 256.678 247.010 255.039 246.860 C 252.121 246.593,251.804 245.605,253.216 241.166 C 254.056 238.525,254.137 238.316,255.560 235.104 C 258.009 229.578,255.639 230.469,252.400 236.293 C 246.703 246.536,242.670 251.854,241.400 250.800 C 240.715 250.232,240.544 244.568,241.150 242.560 C 241.343 241.922,241.722 240.410,241.993 239.200 C 243.036 234.538,249.621 215.445,252.890 207.600 C 253.458 206.237,253.777 205.400,254.793 202.600 C 255.272 201.280,255.830 199.887,256.032 199.505 C 256.234 199.123,256.400 198.459,256.400 198.029 C 256.400 197.599,256.559 197.149,256.752 197.030 C 256.946 196.910,257.203 196.404,257.324 195.906 C 257.445 195.408,257.737 194.325,257.972 193.500 C 258.207 192.675,258.592 191.325,258.827 190.500 C 260.205 185.654,261.640 178.940,262.567 173.000 C 263.251 168.617,264.207 161.273,264.623 157.200 C 265.008 153.435,265.119 153.357,274.905 149.970 L 280.410 148.064 282.305 149.571 C 286.952 153.267,294.623 162.473,297.827 168.200 C 298.073 168.640,298.692 169.720,299.203 170.600 C 300.312 172.512,302.401 176.710,304.227 180.700 C 305.801 184.139,305.614 184.074,307.128 181.700 C 310.749 176.019,315.517 164.552,320.640 149.200 C 320.970 148.210,321.435 146.950,321.674 146.400 C 322.228 145.120,322.678 143.960,322.913 143.200 C 323.161 142.401,326.412 141.558,333.800 140.376 C 335.340 140.130,337.264 139.787,338.076 139.613 L 339.553 139.297 340.944 142.149 C 351.400 163.578,357.726 178.884,360.845 190.300 C 361.040 191.015,361.392 192.275,361.627 193.100 C 361.861 193.925,362.229 195.320,362.445 196.200 C 362.660 197.080,362.998 198.430,363.196 199.200 C 363.510 200.426,364.002 202.641,365.591 210.000 C 365.951 211.667,366.669 214.509,368.117 220.000 C 370.052 227.335,371.890 236.703,372.370 241.670 L 372.691 245.000 372.745 241.906 C 372.775 240.204,372.627 238.044,372.416 237.106 C 372.205 236.168,371.831 234.320,371.584 233.000 C 370.943 229.575,370.683 228.442,368.234 218.400 C 367.027 213.450,365.738 207.960,365.371 206.200 C 364.473 201.893,363.588 198.179,362.799 195.400 C 362.549 194.520,362.253 193.350,362.142 192.800 C 362.031 192.250,361.794 191.440,361.615 191.000 C 361.437 190.560,361.073 189.390,360.807 188.400 C 360.540 187.410,360.160 186.287,359.961 185.905 C 359.762 185.523,359.600 184.859,359.600 184.429 C 359.600 183.999,359.420 183.536,359.200 183.400 C 358.980 183.264,358.800 182.724,358.800 182.200 C 358.800 181.676,358.620 181.136,358.400 181.000 C 358.180 180.864,358.000 180.401,358.000 179.971 C 358.000 179.541,357.841 178.877,357.647 178.495 C 357.181 177.578,356.798 176.633,354.772 171.400 C 353.344 167.710,352.101 164.758,349.216 158.200 C 348.842 157.349,344.994 149.247,342.281 143.600 C 340.119 139.098,338.998 137.935,337.890 139.044 M338.400 144.229 C 338.400 144.841,339.304 146.000,339.782 146.000 C 339.913 146.000,339.741 145.460,339.400 144.800 C 338.709 143.464,338.400 143.287,338.400 144.229 M327.478 147.855 C 327.174 148.159,329.052 152.551,329.558 152.719 C 330.167 152.922,330.112 152.070,329.374 149.904 C 328.802 148.227,327.987 147.346,327.478 147.855 M322.800 150.920 C 322.800 151.514,322.620 152.000,322.400 152.000 C 322.180 152.000,322.008 152.405,322.018 152.900 C 322.032 153.634,322.186 153.514,322.851 152.253 C 323.437 151.143,323.545 150.585,323.233 150.273 C 322.922 149.962,322.800 150.144,322.800 150.920 M343.462 153.039 C 343.545 153.720,343.941 154.980,344.342 155.839 C 344.742 156.697,345.505 158.342,346.035 159.493 C 347.001 161.588,347.600 162.153,347.600 160.969 C 347.600 160.119,344.367 153.200,343.970 153.200 C 343.797 153.200,343.578 152.885,343.484 152.500 C 343.389 152.115,343.380 152.357,343.462 153.039 M80.470 153.218 C 75.339 153.388,71.019 153.654,70.870 153.810 C 70.722 153.966,73.390 153.977,76.800 153.835 C 85.694 153.464,94.720 153.414,99.800 153.707 C 102.445 153.860,103.482 153.831,102.400 153.636 C 99.283 153.073,90.143 152.899,80.470 153.218 M266.276 156.300 C 265.877 157.000,265.596 161.550,265.939 161.762 C 266.322 161.999,266.692 160.664,267.066 157.700 C 267.258 156.181,266.803 155.376,266.276 156.300 M336.000 163.600 C 336.000 164.040,336.180 164.400,336.400 164.400 C 336.620 164.400,336.800 164.749,336.800 165.176 C 336.800 165.603,336.980 166.064,337.200 166.200 C 337.420 166.336,337.600 166.833,337.600 167.304 C 337.600 167.918,337.722 168.038,338.033 167.727 C 338.328 167.432,338.338 167.056,338.066 166.547 C 337.847 166.136,337.374 165.125,337.015 164.300 C 336.283 162.617,336.000 162.422,336.000 163.600 M330.649 163.930 C 330.472 164.442,330.433 164.967,330.563 165.097 C 330.978 165.511,331.270 164.900,331.118 163.934 L 330.971 163.000 330.649 163.930 M329.812 166.117 C 329.641 166.512,329.613 166.947,329.751 167.084 C 330.157 167.490,330.484 166.920,330.297 166.131 C 330.132 165.433,330.110 165.432,329.812 166.117 M120.757 184.138 C 119.914 186.530,118.800 188.596,118.800 187.769 C 118.800 187.544,118.965 187.189,119.166 186.980 C 120.274 185.827,121.203 181.298,121.286 176.634 L 121.373 171.800 121.499 176.738 C 121.608 180.989,121.505 182.018,120.757 184.138 M120.692 178.512 C 120.608 179.440,120.541 178.580,120.542 176.600 C 120.543 174.620,120.612 173.860,120.695 174.912 C 120.777 175.964,120.776 177.584,120.692 178.512 M106.700 195.076 C 106.315 195.176,105.685 195.176,105.300 195.076 C 104.915 194.975,105.230 194.893,106.000 194.893 C 106.770 194.893,107.085 194.975,106.700 195.076 M101.100 195.894 C 100.055 195.976,98.345 195.976,97.300 195.894 C 96.255 195.812,97.110 195.744,99.200 195.744 C 101.290 195.744,102.145 195.812,101.100 195.894 M317.931 197.698 C 314.723 202.202,306.758 207.888,305.019 206.915 C 304.475 206.610,304.658 206.391,306.080 205.648 C 308.827 204.215,313.809 200.577,313.705 200.082 C 313.652 199.833,313.832 199.712,314.105 199.814 C 314.377 199.915,315.410 199.197,316.400 198.217 C 318.525 196.115,319.228 195.876,317.931 197.698 M68.900 199.113 C 64.609 199.221,63.558 199.531,65.100 200.234 C 66.114 200.696,92.302 200.919,94.200 200.481 C 98.496 199.491,84.331 198.725,68.900 199.113 M89.200 200.038 C 89.200 200.446,66.492 200.165,66.033 199.750 C 65.942 199.668,71.117 199.600,77.533 199.600 C 85.713 199.600,89.200 199.731,89.200 200.038 M305.535 205.212 C 305.116 205.457,304.525 205.462,303.935 205.226 C 303.117 204.898,303.201 204.849,304.600 204.838 C 305.820 204.827,306.042 204.916,305.535 205.212 M362.101 207.800 C 362.105 208.680,362.187 208.993,362.283 208.495 C 362.379 207.998,362.375 207.278,362.275 206.895 C 362.175 206.513,362.096 206.920,362.101 207.800 M350.800 209.376 C 350.800 209.913,350.980 210.464,351.200 210.600 C 351.433 210.744,351.600 210.337,351.600 209.624 C 351.600 208.951,351.420 208.400,351.200 208.400 C 350.980 208.400,350.800 208.839,350.800 209.376 M362.537 210.900 C 362.661 211.615,362.873 212.830,363.008 213.600 C 363.144 214.370,363.410 215.360,363.600 215.800 C 363.790 216.240,364.055 217.230,364.188 218.000 C 364.321 218.770,364.613 220.300,364.835 221.400 C 365.058 222.500,365.332 224.120,365.443 225.000 C 365.554 225.880,365.805 226.960,366.000 227.400 C 366.195 227.840,366.448 228.920,366.562 229.800 C 366.676 230.680,366.956 232.435,367.184 233.700 C 367.706 236.584,368.243 239.725,368.571 241.800 C 368.710 242.680,369.032 244.641,369.287 246.158 L 369.750 248.916 368.655 249.789 L 367.560 250.662 368.180 253.631 C 368.521 255.264,368.832 257.770,368.872 259.200 C 368.940 261.646,368.954 261.682,369.107 259.800 C 369.196 258.700,369.054 256.196,368.790 254.235 C 368.248 250.197,368.775 249.159,371.185 249.512 C 372.497 249.705,372.651 249.522,372.959 247.397 L 373.191 245.800 372.764 247.200 C 371.862 250.159,370.955 249.764,370.354 246.153 C 369.767 242.623,368.629 236.383,368.029 233.400 C 366.463 225.625,365.998 223.211,365.759 221.600 C 365.644 220.830,365.394 219.840,365.202 219.400 C 364.856 218.603,364.552 217.152,364.135 214.297 C 364.014 213.471,363.755 212.695,363.558 212.574 C 363.361 212.452,363.200 211.733,363.200 210.976 C 363.200 210.219,363.000 209.600,362.756 209.600 C 362.476 209.600,362.395 210.079,362.537 210.900 M151.600 211.600 C 151.600 212.480,151.780 213.200,152.000 213.200 C 152.220 213.200,152.400 212.480,152.400 211.600 C 152.400 210.720,152.220 210.000,152.000 210.000 C 151.780 210.000,151.600 210.720,151.600 211.600 M351.600 212.753 C 351.600 213.413,351.780 214.064,352.000 214.200 C 352.233 214.344,352.400 213.945,352.400 213.247 C 352.400 212.587,352.220 211.936,352.000 211.800 C 351.767 211.656,351.600 212.055,351.600 212.753 M152.400 215.200 C 152.400 215.860,152.580 216.400,152.800 216.400 C 153.020 216.400,153.200 215.860,153.200 215.200 C 153.200 214.540,153.020 214.000,152.800 214.000 C 152.580 214.000,152.400 214.540,152.400 215.200 M357.487 243.495 C 357.395 244.103,357.317 243.700,357.314 242.600 C 357.311 241.500,357.387 241.003,357.482 241.495 C 357.577 241.986,357.579 242.886,357.487 243.495 M204.600 244.800 C 203.971 245.070,204.143 245.148,205.400 245.166 C 206.574 245.182,206.840 245.084,206.400 244.800 C 205.700 244.348,205.652 244.348,204.600 244.800 M175.123 247.100 C 177.151 249.014,178.347 250.000,178.643 250.000 C 178.771 250.000,179.354 250.339,179.938 250.753 C 180.951 251.472,183.038 252.704,185.200 253.860 C 185.750 254.154,186.636 254.396,187.168 254.398 C 187.922 254.399,187.702 254.180,186.168 253.402 C 185.086 252.853,184.057 252.403,183.882 252.402 C 183.421 252.399,177.674 248.496,175.828 246.932 C 173.685 245.116,173.156 245.243,175.123 247.100 M358.290 249.293 C 358.201 250.012,358.126 249.520,358.124 248.200 C 358.122 246.880,358.195 246.292,358.286 246.893 C 358.377 247.494,358.379 248.574,358.290 249.293 " stroke="none" fill="#046194" fill-rule="evenodd"></path></g></svg>