<?xml version="1.0" standalone="no"?>
<!DOCTYPE svg PUBLIC "-//W3C//DTD SVG 20010904//EN"
 "http://www.w3.org/TR/2001/REC-SVG-20010904/DTD/svg10.dtd">
<svg version="1.0" xmlns="http://www.w3.org/2000/svg"
 width="400.000000pt" height="300.000000pt" viewBox="0 0 400.000000 300.000000"
 preserveAspectRatio="xMidYMid meet">

<g transform="translate(0.000000,300.000000) scale(0.100000,-0.100000)"
fill="#000000" stroke="none">
<path d="M917 2520 c-19 -16 -27 -33 -32 -73 -9 -73 -29 -85 -87 -52 -24 13
-67 27 -95 31 l-53 7 -15 -36 c-8 -20 -15 -44 -15 -53 0 -9 -7 -22 -16 -29
-10 -7 -18 -31 -21 -62 -3 -47 -1 -53 28 -77 17 -14 34 -26 39 -26 4 0 11 -18
15 -40 4 -22 13 -47 21 -54 8 -8 14 -21 14 -28 -1 -26 -40 38 -46 75 -4 20
-11 37 -16 37 -11 0 0 -66 18 -100 7 -14 21 -32 32 -42 19 -16 20 -15 27 30 4
26 12 53 17 60 8 9 5 19 -11 36 -13 14 -18 26 -12 30 5 4 12 -3 16 -14 3 -11
11 -20 16 -20 14 0 39 -26 39 -41 0 -9 -3 -9 -14 0 -12 10 -15 7 -20 -16 -4
-15 -6 -50 -5 -76 3 -57 -15 -84 -30 -46 l-10 24 0 -23 c-1 -12 6 -25 14 -28
18 -7 10 -54 -12 -67 -7 -4 -13 -16 -13 -25 1 -16 1 -16 11 0 9 17 12 17 39 3
28 -14 31 -14 50 5 11 11 20 16 20 10 0 -5 7 -10 15 -10 8 0 15 -6 15 -14 0
-9 -8 -12 -25 -8 -16 3 -25 0 -25 -8 0 -7 7 -10 15 -6 9 3 15 0 15 -10 0 -11
-6 -13 -22 -8 -13 4 -33 7 -45 6 -12 -1 -25 3 -28 8 -12 20 -23 9 -35 -35 -7
-26 -19 -45 -27 -45 -7 0 -16 -7 -19 -15 -4 -9 -19 -15 -42 -15 -50 0 -171
-61 -235 -120 -99 -91 -154 -252 -144 -425 14 -231 92 -430 217 -555 84 -84
134 -105 255 -105 136 0 188 21 288 118 64 63 77 81 95 137 66 204 40 455 -69
671 -21 43 -49 85 -61 93 -17 12 -20 18 -10 28 7 7 12 20 12 30 0 10 4 18 10
18 5 0 14 17 19 38 13 44 14 72 4 71 -5 -1 -23 -1 -41 0 -29 1 -32 3 -22 21
13 24 23 25 44 4 14 -14 17 -13 27 9 7 15 22 27 38 30 21 4 34 -3 71 -43 25
-26 98 -94 163 -150 64 -56 121 -108 125 -115 9 -18 82 -75 94 -75 6 0 7 7 4
17 -4 9 13 -1 38 -23 24 -21 43 -43 42 -49 -2 -5 -27 -13 -56 -18 -116 -16
-148 -59 -155 -205 -4 -82 -2 -101 10 -106 8 -3 21 -3 29 0 10 4 16 -3 19 -18
2 -13 4 -9 3 10 -2 31 0 32 35 32 21 0 44 3 53 6 9 3 16 1 16 -5 0 -6 -17 -11
-40 -11 -29 0 -40 -4 -40 -15 0 -11 12 -15 43 -17 l42 -1 -45 -7 -45 -7 45 -3
45 -3 -35 -7 -35 -7 35 -3 35 -3 -40 -7 c-22 -4 -33 -8 -25 -9 10 -1 7 -6 -10
-15 -24 -14 -23 -14 25 -21 28 -4 57 -13 65 -20 20 -16 55 -24 69 -15 7 4 -2
7 -20 8 -37 1 -49 15 -49 59 0 17 -3 38 -6 47 -5 14 4 16 60 16 51 0 66 -3 67
-15 5 -63 8 -60 -54 -57 -51 4 -56 2 -51 -13 6 -14 15 -16 55 -11 39 5 49 4
49 -8 0 -8 -8 -17 -17 -20 -15 -4 -14 -5 1 -3 13 1 23 13 28 35 5 19 13 30 19
26 7 -4 9 0 6 12 -21 70 -14 183 12 192 9 3 11 -1 7 -16 -4 -11 -9 -30 -11
-43 l-4 -22 22 21 c28 26 92 52 126 52 36 0 87 -33 111 -72 26 -44 25 -66 -5
-90 -24 -18 -24 -21 -10 -49 9 -17 11 -29 5 -29 -5 0 -10 7 -10 15 0 8 -4 15
-10 15 -5 0 -10 -8 -10 -19 0 -25 -16 -37 -75 -51 -77 -19 -103 -16 -135 15
-17 16 -30 24 -30 18 0 -16 48 -52 77 -59 24 -7 147 28 170 48 10 8 13 3 13
-23 0 -31 -4 -36 -46 -53 -57 -23 -153 -18 -193 11 -37 27 -51 35 -51 29 0
-17 85 -58 135 -66 50 -8 65 -7 103 10 24 11 48 20 51 20 4 0 15 -16 24 -35
30 -63 77 -36 77 44 0 27 4 29 68 43 39 9 72 11 78 6 13 -10 24 20 24 66 0 23
-3 26 -13 17 -8 -6 -17 -8 -20 -4 -11 10 51 43 81 43 54 0 91 47 60 78 -17 17
-79 16 -73 -1 3 -7 19 -12 37 -12 17 0 33 -6 36 -13 3 -11 1 -11 -17 -1 -17
11 -23 11 -33 0 -10 -11 -10 -14 0 -18 20 -8 14 -20 -10 -19 -13 1 -46 -11
-75 -25 -28 -15 -71 -30 -95 -34 -23 -4 -46 -12 -50 -18 -4 -7 -11 -2 -16 13
-9 23 -6 25 37 37 25 6 66 19 91 27 39 14 42 14 26 1 -11 -8 -24 -15 -30 -15
-5 0 -7 -3 -4 -6 9 -8 70 25 64 35 -3 4 4 15 14 24 11 9 17 23 14 31 -10 26
14 27 118 5 123 -25 237 -40 335 -42 87 -2 82 -22 -5 -22 -46 0 -57 -4 -60
-18 -4 -22 26 -23 35 -1 4 10 8 12 13 5 5 -8 25 -6 68 8 34 10 64 15 67 11 3
-5 -4 -11 -14 -15 -24 -7 -61 -65 -60 -91 0 -11 5 -5 10 13 12 41 56 78 75 62
20 -17 17 -29 -7 -29 -13 0 -25 -11 -35 -35 -8 -19 -19 -35 -25 -35 -5 0 -8
-4 -4 -10 10 -16 35 1 52 37 l16 35 18 -23 c10 -13 19 -19 19 -13 0 5 -5 15
-12 22 -8 8 -8 15 1 26 9 11 8 17 -4 29 -18 18 -20 43 -4 53 8 4 9 -1 4 -17
-4 -18 -4 -20 4 -10 7 12 12 7 19 -20 6 -19 11 -26 11 -17 1 9 -4 29 -9 44
-11 27 3 50 22 38 14 -9 35 -57 42 -96 6 -32 4 -37 -16 -44 -13 -5 -26 -8 -30
-9 -3 0 -10 -3 -14 -8 -4 -4 7 -7 25 -7 57 0 62 47 17 150 -5 13 7 18 69 29
89 15 330 84 267 76 -38 -5 -43 -3 -40 12 5 22 41 20 76 -3 31 -21 62 -73 62
-106 0 -16 5 -28 11 -28 6 0 9 9 6 20 -4 17 0 20 23 20 16 0 32 5 36 11 5 8
-4 10 -29 7 -25 -3 -38 0 -42 10 -3 8 -3 17 0 20 8 8 94 6 102 -2 12 -11 -11
-40 -45 -56 -35 -17 -44 -35 -12 -25 28 9 25 -6 -13 -61 -89 -130 -261 -223
-427 -231 -61 -3 -81 -1 -70 6 8 6 35 11 60 11 25 0 65 9 89 21 25 11 51 17
58 15 7 -3 13 1 13 9 0 18 34 37 54 29 11 -4 13 0 9 15 -3 11 -8 19 -12 17 -3
-2 -14 2 -25 9 -17 13 -15 15 22 34 36 18 41 19 46 4 4 -9 -1 -21 -11 -29 -10
-7 -13 -14 -6 -14 6 0 14 4 18 10 3 5 12 6 21 3 13 -5 11 -10 -8 -31 l-23 -26
32 23 c35 24 99 94 115 126 5 11 -1 7 -15 -10 -14 -16 -29 -27 -33 -22 -11 11
31 62 50 61 9 -1 13 2 10 8 -3 5 -15 6 -26 2 -12 -3 -58 -12 -102 -20 -69 -11
-72 -13 -21 -8 l60 5 -48 -31 c-133 -84 -172 -97 -334 -111 -84 -7 -150 -17
-147 -21 3 -4 -2 -5 -10 -2 -9 3 -16 10 -16 15 0 5 -12 4 -26 -2 -16 -5 -94
-8 -188 -5 -105 2 -135 1 -86 -4 l75 -7 67 -66 c59 -57 77 -68 150 -93 154
-52 336 -36 513 46 187 86 324 295 331 505 3 97 -8 148 -50 237 -48 102 -181
225 -218 202 -6 -4 -8 -3 -5 3 4 6 0 14 -9 17 -24 9 -29 7 -16 -6 19 -19 14
-30 -10 -22 -31 9 -33 11 -18 29 16 19 3 20 -16 0 -9 -8 -29 -15 -45 -15 -29
0 -38 13 -18 26 12 7 -6 24 -26 24 -5 0 -3 -5 5 -10 13 -8 12 -10 -4 -10 -16
0 -17 -2 -5 -16 12 -15 11 -16 -10 -9 -22 7 -44 7 -115 2 -35 -2 -45 17 -16
33 16 8 25 8 41 -4 20 -13 24 -13 50 6 24 18 37 20 106 16 115 -8 201 -46 256
-112 85 -101 167 -253 167 -310 0 -12 10 -32 23 -43 47 -43 49 -41 41 38 l-7
74 24 -20 c13 -11 26 -23 29 -26 3 -3 15 -11 27 -18 33 -17 36 -2 28 125 l-7
114 -59 54 c-64 57 -69 66 -41 66 10 0 22 3 26 7 4 4 26 6 49 4 42 -2 42 -2
59 45 11 31 14 53 8 63 -7 13 -9 10 -10 -12 0 -19 -7 -30 -22 -37 -18 -7 -19
-9 -5 -9 19 -1 21 -9 8 -29 -5 -8 -21 -12 -40 -10 l-32 3 20 22 c15 16 19 30
15 51 -5 27 -3 30 27 36 l34 6 -40 25 c-25 15 -55 24 -80 24 l-40 0 35 -29
c38 -33 29 -38 -27 -15 -20 8 -38 13 -40 11 -3 -2 12 -10 31 -17 63 -23 37
-77 -56 -117 -25 -10 -29 -9 -46 16 -18 27 -18 27 13 79 18 29 35 50 39 46 3
-3 6 -1 6 5 0 7 7 12 17 12 9 0 14 2 11 5 -12 12 -58 -8 -64 -28 -3 -12 -17
-37 -31 -55 -23 -31 -25 -32 -47 -15 -20 15 -22 21 -13 50 9 29 15 33 43 33
18 0 35 4 38 9 3 4 -31 9 -75 10 -68 2 -83 -1 -95 -16 -13 -16 -14 -15 -8 12
4 17 7 35 8 40 0 6 10 15 21 22 16 9 26 8 48 -5 l28 -17 -23 -7 c-17 -4 -12
-6 19 -7 24 -1 43 4 47 12 3 8 9 6 20 -7 13 -16 16 -17 16 -4 0 19 -67 61 -86
54 -31 -12 -20 14 16 38 47 31 49 47 19 125 -27 73 -51 105 -93 125 -69 33
-202 9 -238 -43 -8 -12 -18 -18 -22 -14 -4 4 -145 8 -314 8 -203 1 -327 6
-366 14 -70 15 -132 2 -164 -33 -25 -27 -38 -124 -22 -171 9 -27 19 -37 48
-45 20 -5 45 -10 56 -10 12 0 16 -5 13 -14 -26 -66 -72 -173 -79 -182 -4 -6
-5 -20 -1 -29 4 -13 3 -16 -5 -11 -7 4 -17 -3 -24 -18 -10 -23 -17 -26 -62
-26 -123 0 -373 -32 -406 -52 -12 -7 -10 -8 5 -4 107 26 421 51 442 35 15 -13
42 25 83 118 18 40 37 70 41 67 5 -3 16 10 24 30 21 50 18 57 -6 16 -11 -19
-17 -26 -13 -15 4 11 9 33 12 48 3 21 8 27 21 21 9 -4 34 -11 56 -17 81 -19
155 -42 154 -47 0 -3 -44 -38 -97 -78 -105 -79 -166 -129 -142 -116 8 4 42 28
75 54 33 26 91 68 128 94 55 37 72 44 87 36 18 -10 260 -1 540 19 81 6 85 5
114 -21 20 -18 27 -33 23 -47 -6 -26 0 -30 50 -34 50 -5 84 -27 133 -90 49
-61 76 -145 90 -275 5 -53 12 -108 16 -120 6 -22 5 -23 -15 -11 -13 9 -21 24
-21 41 0 58 -73 198 -164 316 -71 92 -175 132 -346 132 -118 0 -280 -17 -295
-31 -6 -6 2 -7 20 -3 22 4 42 -1 73 -19 40 -23 42 -25 20 -31 -39 -10 -51 -7
-44 10 5 12 2 15 -10 10 -8 -3 -21 -6 -27 -6 -6 0 -3 -6 7 -13 17 -12 17 -14
3 -20 -11 -4 -21 1 -28 15 -11 21 -12 20 -24 -9 -12 -28 -75 -65 -75 -43 0 5
9 11 20 15 22 7 62 54 55 64 -2 4 -6 21 -9 37 -3 16 -15 35 -26 43 -11 7 -20
19 -20 27 0 19 -36 27 -61 14 -15 -8 -20 -19 -17 -35 4 -17 -3 -27 -26 -41
-17 -10 -60 -45 -96 -79 -36 -33 -87 -76 -113 -94 -44 -30 -58 -34 -150 -41
-383 -31 -443 -38 -434 -46 4 -5 447 32 513 42 40 6 101 47 190 126 77 70 141
114 151 104 4 -4 -4 -14 -18 -23 -13 -10 -65 -51 -114 -93 -171 -142 -162
-139 -477 -162 -101 -7 -172 -14 -158 -16 33 -5 362 17 423 29 48 9 79 28 173
106 70 59 77 54 15 -11 -28 -30 -51 -58 -51 -63 0 -4 21 16 46 45 26 29 70 69
98 88 28 19 45 34 39 34 -7 0 -15 -4 -18 -10 -3 -5 -12 -10 -18 -10 -7 0 -4 7
6 15 12 8 31 11 53 8 23 -4 34 -2 34 6 0 7 4 10 9 6 5 -3 13 0 17 6 5 8 3 9
-7 4 -11 -7 -11 -5 1 11 22 29 24 30 17 12 -4 -11 -2 -18 6 -18 25 0 -32 -42
-59 -44 -39 -2 -121 -63 -165 -123 -50 -66 -74 -113 -50 -99 5 3 11 -1 15 -9
3 -9 0 -15 -10 -15 -8 0 -12 -5 -9 -10 4 -6 21 -8 40 -4 26 5 35 2 43 -13 16
-31 3 -41 -83 -68 -101 -31 -132 -52 -117 -82 8 -15 8 -23 -1 -33 -10 -10 -8
-12 6 -6 10 3 20 6 23 6 2 0 1 14 -3 31 -4 21 -1 34 8 40 24 15 28 10 17 -21
-5 -17 -8 -36 -5 -44 10 -25 -238 -63 -303 -47 l-35 9 38 1 c21 1 69 13 105
27 37 14 79 30 95 36 15 6 28 16 28 22 5 38 -5 163 -13 174 -7 8 -40 12 -102
11 -121 -1 -284 -15 -231 -19 22 -2 47 -2 55 -2 8 1 70 4 136 7 102 4 124 2
135 -11 11 -13 9 -14 -13 -9 -14 4 -109 2 -212 -4 -189 -11 -244 -23 -238 -52
4 -17 3 -16 -41 40 -20 26 -33 51 -29 59 4 11 1 13 -7 7 -7 -4 -11 -18 -8 -31
3 -16 0 -24 -9 -24 -8 0 -11 6 -8 15 4 11 -1 15 -17 15 -13 1 -36 1 -52 1 -15
1 -34 -1 -42 -5 -19 -7 -19 -26 0 -26 8 0 15 -4 15 -10 0 -6 31 -10 74 -10 53
0 77 -4 86 -15 11 -13 7 -15 -26 -15 -22 1 -66 8 -99 16 -33 8 -75 19 -93 24
-38 9 -86 39 -78 47 3 3 12 0 21 -7 8 -7 15 -10 15 -8 0 3 -71 63 -157 134
-87 71 -194 164 -239 207 -44 42 -85 77 -91 77 -6 0 -23 20 -38 45 -20 35 -25
54 -20 78 6 31 5 31 -8 8 -18 -30 -33 -10 -16 21 7 13 20 48 30 78 11 36 22
54 31 51 7 -2 25 -6 40 -8 14 -3 28 -13 31 -23 2 -9 35 -42 73 -74 38 -31 110
-92 159 -136 208 -185 254 -224 334 -278 82 -56 84 -57 152 -56 89 1 111 16
40 29 -21 4 -30 2 -26 -5 9 -15 -54 -10 -90 8 -46 22 -121 78 -229 172 -54 47
-126 107 -160 134 -33 26 -83 68 -109 93 -43 40 -46 45 -27 50 30 8 25 31 -16
69 -41 39 -54 42 -61 14 -3 -12 -11 -19 -17 -17 -13 5 -9 56 6 74 13 16 -9 46
-26 36 -6 -4 -5 1 2 9 8 9 20 14 28 11 18 -7 20 37 2 55 -16 16 -1 29 20 16
21 -14 28 -64 11 -75 -10 -6 -9 -12 5 -28 11 -12 24 -21 31 -21 6 0 20 -7 31
-16 19 -15 19 -15 -1 -11 -11 3 -29 8 -40 12 -17 6 -17 4 4 -14 13 -12 32 -21
43 -21 31 0 73 -27 109 -70 33 -39 61 -51 75 -29 3 6 -1 18 -11 27 -16 16 -17
16 -10 -5 11 -39 -12 -26 -39 22 -15 25 -40 52 -56 60 -17 9 -30 18 -30 21 0
10 61 -27 86 -54 14 -15 24 -20 22 -12 -3 8 -22 29 -44 45 -25 20 -38 37 -36
48 4 17 5 17 22 2 11 -10 51 -21 94 -27 52 -8 76 -15 76 -25 0 -16 32 -17 48
-1 13 13 15 49 6 86 -6 19 -13 22 -63 22 -72 1 -132 15 -147 34 -6 9 -15 16
-20 16 -5 0 -22 11 -38 25 -44 38 -86 31 -86 -14 1 -30 23 -64 35 -53 4 4 5
-5 1 -20 -4 -19 -2 -28 5 -28 7 0 10 -2 7 -5 -2 -3 -18 0 -34 5 -27 9 -29 14
-26 44 4 38 -12 76 -33 76 -7 0 -23 16 -35 35 -12 19 -30 41 -39 48 -10 6 -34
44 -54 83 -32 63 -75 114 -97 114 -4 0 -19 -9 -33 -20z m79 -45 c12 -22 25
-51 29 -63 7 -23 7 -24 -19 -7 -19 13 -38 16 -67 12 l-41 -5 7 36 c8 43 32 74
54 70 9 -2 25 -21 37 -43z m-314 -92 c-4 -26 -3 -27 10 -10 12 17 16 17 26 4
11 -13 8 -18 -19 -31 -18 -9 -36 -16 -41 -16 -11 0 -10 23 2 54 13 34 28 33
22 -1z m63 17 c3 -5 1 -10 -4 -10 -6 0 -11 5 -11 10 0 6 2 10 4 10 3 0 8 -4
11 -10z m266 -27 c36 -24 79 -85 79 -113 0 -24 -31 -20 -67 8 -21 17 -57 38
-80 47 -36 15 -43 22 -43 45 0 47 50 53 111 13z m-198 -15 c25 -23 45 -78 29
-78 -5 0 -24 5 -41 11 -31 11 -51 41 -51 75 0 21 36 17 63 -8z m-72 -43 c0 -5
-11 -11 -23 -12 -18 -1 -19 0 -4 4 15 4 16 7 5 15 -11 7 -10 8 4 6 10 -2 18
-7 18 -13z m-56 -15 c3 -5 3 -10 -2 -10 -4 0 -25 -4 -46 -9 -33 -8 -36 -7 -26
5 7 8 18 13 26 10 7 -3 13 -1 13 4 0 13 27 13 35 0z m91 -14 c9 -9 10 -17 4
-21 -12 -7 -42 19 -33 29 9 9 13 8 29 -8z m163 -5 l23 -18 -31 5 c-18 2 -31
10 -31 18 0 19 10 17 39 -5z m-45 -27 c73 -7 116 -21 116 -40 0 -23 -19 -25
-39 -5 -12 12 -46 24 -95 32 -42 6 -76 16 -76 21 0 6 8 7 17 4 9 -4 44 -9 77
-12z m392 -11 c-4 -9 -1 -20 6 -24 7 -4 10 -11 6 -14 -5 -6 -58 40 -58 50 0 3
12 5 26 5 20 0 25 -4 20 -17z m-506 -27 c0 -18 -17 -29 -30 -21 -8 5 -7 11 1
21 15 18 29 18 29 0z m64 -3 c27 -28 207 -48 190 -21 -4 7 -3 8 5 4 6 -4 9
-11 6 -15 -2 -4 19 -20 48 -34 48 -24 50 -26 22 -26 -16 0 -50 8 -74 19 -24
11 -60 20 -80 20 -45 1 -133 31 -139 48 -4 13 10 17 22 5z m311 -13 c3 -5 1
-10 -4 -10 -6 0 -11 5 -11 10 0 6 2 10 4 10 3 0 8 -4 11 -10z m192 -37 c-3
-10 -5 -2 -5 17 0 19 2 27 5 18 2 -10 2 -26 0 -35z m-543 10 c-7 -2 -10 -14
-7 -26 5 -21 4 -21 -12 -6 -14 14 -15 21 -5 39 9 17 14 19 23 10 9 -9 9 -14 1
-17z m312 6 c3 -5 1 -9 -5 -9 -17 0 -41 12 -41 20 0 10 38 1 46 -11z m204 2
c0 -6 -4 -13 -10 -16 -5 -3 -10 1 -10 9 0 9 5 16 10 16 6 0 10 -4 10 -9z
m-566 -17 c8 -21 8 -24 -3 -24 -5 0 -11 9 -14 20 -6 24 8 27 17 4z m122 -6 c6
-1 12 -24 13 -55 1 -35 -2 -52 -9 -48 -12 8 -13 -1 -1 -23 7 -13 4 -20 -15
-29 -22 -10 -24 -9 -20 5 18 59 27 113 23 128 -3 14 -5 13 -6 -6 -2 -44 -28
-115 -42 -117 -8 -2 -20 1 -27 6 -12 7 -10 21 9 80 21 64 26 71 44 66 11 -4
25 -7 31 -7z m2412 3 c44 -25 82 -39 76 -29 -4 5 -20 17 -38 24 l-31 15 30 -6
c17 -4 41 -13 54 -22 24 -15 24 -16 5 -30 -10 -9 -46 -28 -78 -44 l-59 -28
-29 24 c-16 14 -41 25 -56 25 l-27 0 27 26 c24 24 28 25 62 14 20 -6 43 -21
52 -33 9 -12 14 -15 12 -7 -3 8 -19 25 -38 37 l-33 23 24 9 c13 5 25 10 27 10
1 1 10 -3 20 -8z m-2362 -26 c3 -8 1 -27 -4 -42 l-10 -28 -1 27 c-1 14 -4 33
-7 42 -3 9 -1 16 5 16 7 0 14 -7 17 -15z m84 4 c11 -8 7 -9 -17 -5 -19 3 -33
1 -33 -4 0 -6 14 -10 30 -10 35 0 34 2 16 -40 l-13 -32 -27 47 c-14 26 -26 49
-26 51 0 9 56 3 70 -7z m-300 -51 c0 -26 -17 -14 -22 17 -4 20 -3 23 8 14 8
-6 14 -20 14 -31z m1680 5 c12 -21 18 -29 14 -18 -18 55 -18 59 2 51 19 -8 41
-12 77 -15 9 0 26 -16 37 -33 21 -34 28 -22 9 14 -10 19 -9 20 17 14 16 -4 41
-20 57 -37 15 -16 27 -25 27 -19 0 5 -9 19 -20 30 l-20 20 23 0 c12 0 37 -13
55 -30 40 -36 55 -40 22 -5 l-23 25 32 0 c23 0 41 -9 62 -29 16 -16 29 -25 29
-21 0 5 -10 18 -22 30 l-22 20 30 0 c16 0 81 3 144 7 123 6 166 -4 189 -44 6
-10 11 -13 11 -6 0 6 -12 22 -27 34 l-28 22 33 -6 c33 -7 88 -41 95 -61 5 -14
-39 -16 -333 -18 -138 -1 -262 4 -320 12 -52 7 -102 13 -110 14 -51 7 -97 21
-107 35 -17 23 -16 26 15 38 15 6 28 11 29 12 2 1 12 -16 23 -36z m-1297 16
c31 -8 36 -13 27 -24 -10 -12 -17 -11 -46 2 -19 9 -34 20 -34 25 0 10 7 10 53
-3z m2177 -131 c60 -81 86 -156 63 -179 -7 -7 -12 5 -15 34 -3 25 -15 65 -27
89 -20 43 -30 55 -95 127 -26 29 -28 32 -8 22 13 -7 50 -49 82 -93z m-2500 60
c0 -13 -5 -30 -10 -38 -7 -11 -10 -5 -10 23 0 20 5 37 10 37 6 0 10 -10 10
-22z m168 -41 l-3 -22 -13 23 c-8 13 -11 31 -7 40 6 16 7 16 16 -1 6 -10 9
-28 7 -40z m310 -2 c-3 -4 -16 9 -28 27 l-23 33 28 -27 c16 -15 26 -30 23 -33z
m-275 -32 l-7 -28 -7 30 c-4 17 -7 41 -7 55 l-1 25 15 -27 c9 -18 12 -37 7
-55z m204 62 c0 -8 -4 -15 -9 -15 -10 0 -11 14 -1 23 9 10 10 9 10 -8z m-346
-49 c-6 -7 -20 -43 -31 -79 -20 -65 -31 -76 -58 -58 -13 8 -10 38 9 91 30 85
26 80 59 69 22 -8 28 -14 21 -23z m59 -2 c0 -3 -11 -15 -25 -26 -16 -13 -25
-29 -24 -46 1 -26 1 -25 10 6 10 33 29 44 29 16 0 -18 -31 -74 -41 -74 -4 0
-12 6 -18 14 -9 11 -9 25 -1 58 7 24 14 46 17 51 5 8 53 10 53 1z m21 -57 c-8
-8 -11 -3 -11 19 1 25 2 27 11 11 8 -14 8 -22 0 -30z m73 -79 c25 -32 45 -58
43 -58 -2 0 -24 7 -50 16 -42 14 -46 18 -36 36 14 27 6 32 -30 20 -17 -6 -31
-8 -31 -4 0 16 33 53 44 50 7 -2 34 -29 60 -60z m-66 -18 c-2 -5 20 -21 47
-35 45 -23 35 -27 -22 -9 -14 4 -13 1 6 -15 28 -25 20 -26 -40 -5 -39 14 -45
20 -41 40 2 13 13 25 26 27 11 2 22 5 24 6 1 0 1 -3 0 -9z m-104 -151 c-20
-63 -38 -118 -41 -122 -13 -21 -27 17 -24 64 l3 52 -48 -8 c-39 -6 -46 -4 -37
7 5 7 18 34 28 61 12 33 23 47 36 47 21 0 23 -11 10 -58 -5 -17 -6 -32 -1 -32
5 0 12 15 15 33 10 46 23 59 46 47 14 -8 21 -6 31 9 7 11 14 19 15 17 2 -1
-13 -54 -33 -117z m2622 104 c-3 -10 -8 -30 -11 -44 -5 -21 -11 -25 -36 -21
-32 5 -32 5 -23 51 6 27 10 31 41 31 28 0 33 -3 29 -17z m287 -2 l28 -18 -25
-5 c-17 -4 -37 3 -58 18 l-32 24 30 0 c16 0 42 -9 57 -19z m-2454 -178 c47
-37 114 -92 148 -122 50 -45 59 -57 47 -64 -12 -7 -37 11 -103 75 -48 45 -137
129 -198 185 -62 56 -107 103 -100 106 6 2 36 -23 65 -55 30 -32 93 -88 141
-125z m-369 147 c23 -12 18 -32 -16 -66 -13 -12 -24 -34 -24 -47 0 -32 -23
-52 -38 -34 -8 9 -5 32 10 85 22 73 31 82 68 62z m2800 -41 c0 -22 -5 -29 -20
-29 -15 0 -20 7 -20 29 0 28 16 44 33 34 4 -2 7 -17 7 -34z m-1006 16 c-25
-19 -40 -19 -24 0 7 8 20 15 28 15 13 0 12 -3 -4 -15z m-2024 -29 c0 -3 -4 -8
-10 -11 -5 -3 -10 -1 -10 4 0 6 5 11 10 11 6 0 10 -2 10 -4z m2060 -21 c-7 -8
-19 -15 -27 -15 -8 0 -11 -4 -8 -10 3 -5 1 -10 -4 -10 -16 0 -14 11 6 32 20
23 52 26 33 3z m-1762 -35 c-2 -28 -9 -37 -31 -45 -24 -8 -31 -6 -41 8 -7 9
-16 14 -19 10 -11 -10 -8 14 4 41 10 21 18 25 51 23 38 -2 39 -3 36 -37z
m-336 -2 c-23 -23 -14 -55 16 -61 53 -12 54 -15 28 -122 -25 -103 -82 -271
-98 -292 -5 -7 -7 -16 -4 -22 8 -12 -24 -48 -51 -56 -17 -5 -21 -2 -18 12 28
137 43 198 75 308 21 72 41 139 45 150 4 13 1 11 -8 -5 -8 -14 -36 -95 -62
-180 -61 -202 -67 -216 -60 -165 14 109 39 208 82 325 41 111 52 134 61 126 3
-4 0 -12 -6 -18z m2295 16 c-3 -3 -12 -4 -19 -1 -8 3 -5 6 6 6 11 1 17 -2 13
-5z m-2367 -14 c0 -5 -12 -10 -27 -9 -25 0 -26 1 -8 9 27 12 35 12 35 0z m40
0 c0 -5 -4 -10 -10 -10 -5 0 -10 5 -10 10 0 6 5 10 10 10 6 0 10 -4 10 -10z
m140 -15 c0 -35 -33 -50 -73 -34 -42 16 -40 14 -27 38 8 17 20 21 55 21 41 0
45 -2 45 -25z m1541 -8 c-10 -9 -11 -8 -5 6 3 10 9 15 12 12 3 -3 0 -11 -7
-18z m489 3 c0 -13 -60 -43 -68 -34 -4 4 -2 8 3 11 6 2 21 10 35 17 14 8 26
14 28 15 1 1 2 -3 2 -9z m-150 -15 c0 -2 -10 -10 -22 -16 -21 -11 -22 -11 -9
4 13 16 31 23 31 12z m690 -15 c24 -15 7 -19 -20 -5 -15 8 -19 14 -10 14 8 1
22 -3 30 -9z m-2477 -14 c24 -18 21 -24 -8 -18 -32 6 -32 -6 -1 -18 19 -7 23
-14 19 -31 -4 -14 -2 -20 5 -15 5 3 22 2 37 -4 20 -8 25 -15 20 -29 -4 -14 1
-25 20 -37 19 -12 25 -23 21 -38 -3 -13 3 -29 19 -46 18 -19 22 -29 14 -40 -7
-10 -12 -11 -15 -3 -16 37 -87 142 -127 188 -39 44 -46 59 -41 80 7 28 12 30
37 11z m83 4 c16 0 18 -9 5 -28 -7 -12 -12 -12 -30 -1 -25 16 -29 44 -5 35 9
-3 22 -6 30 -6z m1774 -9 c14 -26 13 -38 -2 -23 -7 7 -23 12 -37 12 -24 0 -24
1 -5 15 25 19 31 19 44 -4z m99 -15 c-15 -15 -69 -34 -57 -21 14 14 63 42 67
38 3 -2 -2 -10 -10 -17z m907 -56 c14 -17 1 -40 -22 -40 -8 0 -14 -11 -14 -26
0 -23 3 -25 33 -22 30 3 32 1 35 -32 3 -42 -13 -73 -27 -51 -5 7 -14 10 -20 7
-6 -4 -19 -3 -28 3 -21 11 -46 142 -30 152 6 4 7 23 4 45 l-6 37 32 -29 c17
-16 37 -36 43 -44z m-3138 23 c-14 -33 -34 -57 -25 -30 12 33 -51 -12 -95 -68
-22 -27 -44 -52 -49 -53 -5 -2 -7 -7 -5 -11 3 -4 -1 -25 -9 -47 -30 -83 -8
-349 37 -439 35 -70 99 -159 140 -192 24 -20 55 -34 84 -39 24 -3 47 -10 49
-14 8 -12 74 0 115 21 50 25 83 64 124 146 25 51 36 86 36 118 0 25 4 45 9 45
22 0 0 -103 -36 -173 -155 -295 -453 -231 -603 129 -37 90 -50 219 -31 319 24
129 104 245 203 294 60 29 71 28 56 -6z m2066 10 c-5 -16 -4 -16 9 0 12 14 20
16 33 9 16 -9 15 -11 -7 -23 -13 -7 -37 -12 -54 -12 -16 1 -22 -1 -12 -4 22
-6 22 -15 -3 -31 -17 -10 -20 -10 -21 5 0 15 -3 14 -11 -4 -10 -20 -28 -32
-28 -18 0 9 82 95 91 95 5 0 6 -8 3 -17z m171 -3 c-10 -11 -25 -20 -34 -19
-11 0 -9 3 5 9 12 5 25 13 29 19 3 6 9 11 12 11 3 0 -2 -9 -12 -20z m39 -4
c-4 -9 -21 -24 -38 -33 l-31 -16 35 35 c38 38 44 41 34 14z m-1914 -27 c0 -5
-11 -3 -25 3 -14 6 -25 17 -25 25 0 11 5 10 25 -3 14 -9 25 -20 25 -25z m2100
22 c0 -5 -10 -31 -21 -58 l-22 -48 -12 50 c-15 58 -18 41 -5 -25 15 -80 -4
-81 -44 -2 -40 80 -43 76 44 85 19 2 41 5 48 5 6 1 12 -2 12 -7z m70 -5 c0 -1
-21 -22 -46 -46 -48 -48 -47 -50 -15 34 8 18 15 22 35 19 14 -3 26 -6 26 -7z
m-229 -21 c5 4 6 -2 2 -12 -3 -10 -2 -15 2 -10 10 8 46 -43 39 -55 -3 -4 -1
-8 5 -8 16 0 33 -39 26 -60 -11 -34 -27 -22 -23 15 5 40 2 42 -32 15 -30 -23
-66 -26 -74 -5 -3 8 -1 15 4 15 6 0 10 -4 10 -10 0 -17 26 -11 51 11 l24 20
-25 -7 c-21 -6 -23 -5 -13 8 7 8 10 24 6 36 -5 22 -6 22 -27 5 l-21 -18 19 23
c24 28 15 39 -16 18 -12 -9 -27 -16 -33 -16 -5 0 5 9 23 20 17 11 33 25 33 32
1 7 3 5 6 -5 2 -9 9 -15 14 -12z m-2160 -125 l-20 -45 0 33 c-1 18 7 60 17 95
l17 62 3 -50 c2 -34 -4 -66 -17 -95z m2457 125 c2 -2 -4 -43 -12 -91 -17 -97
-29 -114 -80 -115 -30 0 -31 0 -7 -10 14 -5 30 -8 37 -5 7 3 15 -3 19 -12 5
-14 8 -12 18 8 10 19 23 26 57 30 31 4 38 7 22 10 -20 4 -16 9 33 39 52 31 58
32 73 17 20 -20 9 -32 -43 -46 -43 -10 -44 -10 50 2 29 4 30 -26 1 -42 -14 -7
-44 -35 -66 -62 -23 -26 -48 -48 -55 -48 -8 0 -28 15 -45 34 -19 21 -48 39
-76 46 -24 7 -47 17 -50 21 -3 5 -11 9 -17 9 -8 0 -8 -3 2 -9 8 -5 9 -11 3
-15 -6 -3 -13 -2 -17 4 -3 5 -19 10 -34 10 -23 0 -30 5 -33 25 -3 13 -1 22 3
19 5 -3 9 1 9 8 1 7 9 3 21 -11 26 -32 35 -19 22 32 l-12 42 61 62 c53 53 66
61 87 56 14 -3 27 -7 29 -8z m130 -29 c48 -34 106 -115 134 -188 17 -46 24
-140 12 -171 -5 -15 -41 -13 -84 5 -39 17 -63 26 -95 37 -25 8 -17 10 45 8 74
-2 75 -2 73 -27 l-3 -25 11 25 c6 14 8 40 5 58 -2 17 -1 32 5 32 9 0 13 -32
11 -80 -1 -24 -1 -24 8 -3 9 21 -4 151 -17 162 -3 3 -3 -8 0 -26 4 -18 2 -35
-2 -38 -10 -6 -21 18 -21 48 0 37 -39 102 -98 164 -61 64 -56 70 16 19z
m-2542 8 c-4 -9 -9 -15 -11 -12 -3 3 -3 13 1 22 4 9 9 15 11 12 3 -3 3 -13 -1
-22z m-216 -22 c0 -15 -4 -33 -9 -41 -7 -11 -12 -7 -24 16 -14 27 -14 31 0 46
21 21 33 13 33 -21z m440 -18 c0 -17 -2 -17 -34 -3 -22 10 -23 14 -13 36 l11
25 18 -22 c10 -12 18 -28 18 -36z m2238 40 c13 -9 21 -22 18 -30 -3 -7 0 -11
7 -8 7 2 23 -6 36 -20 l23 -25 -61 -30 c-33 -17 -63 -31 -66 -31 -7 0 13 39
34 66 9 11 1 4 -18 -15 -19 -20 -32 -29 -28 -20 3 9 8 41 12 72 4 32 10 57 14
57 4 0 17 -7 29 -16z m-2440 -63 c-18 -16 -34 -28 -36 -27 -1 2 7 25 18 51 20
47 21 48 36 27 14 -20 13 -23 -18 -51z m1993 -13 c13 -29 27 -54 32 -56 4 -2
7 -18 6 -35 0 -36 3 -42 -42 63 -11 25 -24 53 -29 63 -5 9 -5 17 0 17 5 0 19
-24 33 -52z m-2266 11 c14 -26 15 -38 4 -80 -7 -27 -15 -49 -18 -49 -17 0 -71
42 -71 54 0 20 21 66 30 66 4 0 15 -18 25 -40 10 -22 20 -38 22 -36 3 2 -5 23
-17 46 -21 41 -21 70 -1 70 6 0 18 -14 26 -31z m2048 6 c-20 -27 -29 -30 -38
-15 -9 15 14 40 37 40 18 0 18 -1 1 -25z m185 -17 l11 -27 -35 15 c-18 8 -34
12 -34 9 0 -3 18 -12 40 -21 22 -9 40 -17 40 -19 0 -1 7 -19 15 -39 l15 -36
-52 21 c-29 12 -68 26 -87 31 l-34 10 49 49 c50 51 53 51 72 7z m122 27 c-7
-8 -20 -15 -29 -15 -11 1 -8 5 9 15 32 18 35 18 20 0z m-2020 -29 c0 -6 -4 -4
-9 3 -8 12 -11 9 -16 -11 -4 -14 -20 -38 -36 -54 l-29 -28 0 29 c0 38 57 100
77 84 7 -6 13 -17 13 -23z m169 -12 c18 -40 2 -55 -32 -30 -16 12 -16 17 -5
35 17 27 22 26 37 -5z m-131 -42 c-9 -22 -102 -161 -105 -158 -9 8 42 163 61
183 19 23 19 23 33 3 8 -11 13 -24 11 -28z m1442 8 c11 -7 8 -10 -15 -9 -16 0
-39 4 -50 9 -16 7 -14 9 15 9 19 0 42 -4 50 -9z m670 1 c0 -5 3 -18 6 -28 5
-16 4 -16 -10 1 -18 23 -20 36 -6 36 6 0 10 -4 10 -9z m-35 -108 c13 -29 27
-53 30 -53 3 0 1 9 -5 19 -14 28 -15 28 43 26 86 -3 166 -67 155 -124 -3 -17
-110 -50 -158 -49 l-25 0 25 8 c20 6 21 8 6 9 -11 1 -27 -5 -35 -13 -22 -20
-82 -34 -106 -26 -11 4 -46 5 -77 2 -54 -4 -58 -3 -58 16 0 25 -12 34 -34 26
-11 -4 -14 -13 -11 -24 5 -14 0 -20 -22 -23 -15 -2 12 -5 60 -6 66 -1 88 -4
85 -13 -3 -7 -13 -15 -23 -16 -9 -2 -15 0 -11 6 3 6 -30 12 -87 15 -179 12
-406 43 -457 64 -8 3 46 16 120 29 109 19 146 21 195 14 89 -14 222 -12 290 6
33 8 65 16 71 16 7 1 5 17 -8 45 -10 24 -16 48 -13 53 3 6 1 10 -6 10 -9 0 -9
3 0 14 17 21 -4 60 -27 52 -13 -5 -12 -3 2 9 18 14 21 13 38 -13 11 -15 30
-51 43 -79z m-2215 63 c0 -12 -11 -33 -25 -46 -30 -28 -30 -27 -9 33 16 48 34
54 34 13z m1573 12 c13 -6 17 -21 17 -58 l0 -50 -47 0 c-27 0 -82 -6 -123 -14
-130 -25 -213 -30 -269 -15 -49 12 -61 22 -42 33 5 4 12 0 14 -6 3 -7 6 11 7
40 2 28 4 57 5 62 1 6 3 13 4 16 0 4 7 2 14 -3 10 -9 168 -1 217 10 26 7 184
-5 203 -15z m-1399 -23 c7 -28 -30 -108 -47 -102 -13 4 -13 7 7 75 18 64 29
72 40 27z m131 4 c8 -36 1 -47 -20 -29 -9 7 -18 10 -21 7 -3 -3 3 -11 14 -18
19 -12 19 -14 4 -38 l-16 -26 27 24 c30 27 33 27 42 -12 8 -30 4 -32 -26 -17
-24 13 -25 2 -2 -15 15 -11 15 -15 4 -29 -7 -9 -9 -16 -3 -16 5 0 12 7 16 15
10 27 24 16 29 -22 5 -47 0 -58 -21 -41 -15 11 -15 11 -4 -4 11 -14 10 -19
-10 -32 l-23 -16 -7 62 c-4 35 -16 89 -28 122 l-20 58 23 29 c28 36 34 36 42
-2z m1652 0 c34 -11 64 -23 67 -28 3 -4 -19 -7 -49 -5 -44 2 -59 -2 -81 -21
l-26 -22 26 -7 c38 -9 32 -24 -11 -28 -43 -3 -96 20 -88 40 2 6 0 12 -6 12
-20 0 10 38 35 44 14 3 28 15 31 27 5 14 12 18 23 14 10 -4 45 -15 79 -26z
m157 -8 c-6 -6 -24 19 -24 34 1 6 7 1 15 -9 8 -11 12 -22 9 -25z m-2408 -58
c-2 -2 -15 -1 -30 3 -27 6 -31 20 -20 62 6 22 8 20 31 -19 13 -23 22 -44 19
-46z m333 36 c-11 -36 -14 -40 -17 -20 -4 22 17 76 25 67 3 -2 -1 -24 -8 -47z
m960 31 c-1 -3 3 -15 9 -27 8 -14 18 -20 32 -16 12 3 20 0 20 -6 0 -8 -12 -11
-32 -9 -28 2 -33 7 -33 28 0 14 -4 29 -10 33 -6 5 -5 7 3 5 8 -2 12 -6 11 -8z
m1146 0 c3 -5 1 -10 -4 -10 -6 0 -11 5 -11 10 0 6 2 10 4 10 3 0 8 -4 11 -10z
m-1025 -32 c0 -23 -3 -29 -9 -19 -5 7 -13 11 -19 7 -5 -3 -15 1 -22 9 -7 8
-17 12 -24 8 -7 -4 -8 -2 -1 5 6 6 24 12 40 15 17 2 31 5 33 6 1 0 2 -14 2
-31z m1870 22 c0 -5 -2 -10 -4 -10 -3 0 -8 5 -11 10 -3 6 -1 10 4 10 6 0 11
-4 11 -10z m-3255 -12 c20 -9 25 -17 21 -32 -3 -12 -6 -24 -6 -28 0 -19 -18
-5 -33 27 -24 51 -24 52 18 33z m1104 6 c36 -7 41 -21 9 -26 -30 -4 -34 -24
-7 -39 19 -10 25 -9 36 7 7 10 13 13 13 7 0 -6 3 -18 6 -27 5 -12 0 -16 -19
-16 -14 0 -38 -5 -54 -11 -15 -6 -43 -13 -61 -15 -49 -5 -70 -13 -69 -27 0 -7
-1 -21 -2 -32 l-2 -20 -9 20 c-7 16 -9 12 -9 -18 -1 -35 0 -37 15 -23 8 9 18
16 22 16 4 1 24 3 45 6 29 5 37 2 37 -10 0 -12 -10 -16 -34 -16 -64 0 -75 -15
-16 -21 53 -6 52 -6 -17 -6 l-73 1 1 75 c1 108 30 152 112 171 44 11 41 11 76
4z m-909 -58 c-9 -24 -35 -44 -45 -34 -2 2 5 24 16 48 17 37 22 42 30 28 6
-10 5 -26 -1 -42z m2208 37 c2 -7 -1 -13 -7 -13 -6 0 -11 4 -11 10 0 5 -7 7
-15 4 -8 -4 -15 -2 -15 4 0 14 43 9 48 -5z m492 -14 c0 -15 -15 -27 -52 -44
-63 -28 -49 -33 15 -6 l45 19 5 -24 c4 -23 2 -24 -52 -24 -85 0 -90 9 -31 64
51 47 70 52 70 15z m-2522 -19 c-8 -29 -16 -40 -29 -40 -18 0 -17 3 7 40 15
22 28 40 29 40 2 0 -2 -18 -7 -40z m-98 -4 c0 -35 -17 -50 -45 -40 -21 8 -19
24 7 51 29 31 38 29 38 -11z m172 -29 c-20 -13 -24 -3 -10 28 l13 28 6 -24 c3
-15 0 -27 -9 -32z m1836 31 c-5 -14 -50 -20 -88 -11 -23 5 -24 6 -5 13 33 14
97 12 93 -2z m39 6 c-3 -3 -12 -4 -19 -1 -8 3 -5 6 6 6 11 1 17 -2 13 -5z
m-2336 -30 c9 -8 19 -11 24 -7 4 5 5 2 0 -5 -4 -8 -2 -25 6 -38 19 -36 4 -40
-44 -14 -61 33 -67 40 -67 67 0 22 3 24 33 18 17 -4 39 -13 48 -21z m1469 -53
c69 -23 135 -41 147 -41 37 0 34 -16 -3 -18 -19 -2 -46 -7 -61 -13 -14 -5 -26
-8 -27 -7 -16 39 -70 68 -132 68 -17 0 -34 3 -38 8 -4 4 -11 7 -15 7 -16 0
-61 44 -61 60 0 15 3 15 33 -4 17 -11 88 -38 157 -60z m940 59 c0 -5 -7 -10
-15 -10 -8 0 -18 -12 -21 -26 -7 -27 -38 -44 -82 -44 l-26 0 22 20 c12 12 22
27 22 35 0 15 34 30 49 20 5 -3 12 -1 16 5 8 13 35 13 35 0z m-1189 -53 c-14
-14 -14 -47 0 -47 6 0 8 9 4 20 -5 15 -3 18 9 14 19 -7 19 -4 1 -42 -11 -22
-21 -29 -32 -25 -14 6 -14 7 3 14 17 7 17 8 -3 8 -14 1 -23 7 -23 16 0 10 -10
15 -29 15 -37 0 -46 13 -25 35 18 18 40 14 36 -6 -1 -8 4 -5 13 5 8 11 15 23
15 27 0 4 8 9 18 11 20 4 30 -28 13 -45z m1239 12 c0 -4 -9 -10 -20 -13 -11
-3 -29 -9 -40 -12 -29 -8 -25 13 8 41 25 22 28 23 40 8 6 -9 12 -20 12 -24z
m-360 10 c0 -5 -9 -9 -20 -9 -19 0 -26 11 -14 23 8 8 34 -3 34 -14z m-839 -22
c-8 -8 -11 -7 -11 4 0 20 13 34 18 19 3 -7 -1 -17 -7 -23z m1010 2 c-18 -17
-39 -29 -48 -27 -14 3 -10 8 15 21 17 10 32 22 32 27 0 6 7 10 16 10 11 0 6
-9 -15 -31z m-2086 11 c3 -5 2 -10 -4 -10 -5 0 -13 5 -16 10 -3 6 -2 10 4 10
5 0 13 -4 16 -10z m295 -10 c0 -17 -4 -19 -27 -14 -37 9 -44 14 -38 25 4 5 19
9 36 9 22 0 29 -5 29 -20z m1756 5 c-22 -17 -52 -20 -61 -6 -3 5 9 12 27 14
18 2 38 4 43 5 6 1 1 -5 -9 -13z m-1973 -15 c17 -14 24 -26 20 -37 -4 -10 -2
-14 5 -9 19 11 22 -11 10 -63 -14 -64 -33 -68 -24 -5 6 48 -2 73 -37 112 -26
28 -9 29 26 2z m85 2 c2 -7 -4 -15 -13 -18 -20 -8 -27 -1 -19 20 7 18 25 17
32 -2z m156 3 c3 -8 1 -15 -4 -15 -6 0 -10 7 -10 15 0 8 2 15 4 15 2 0 6 -7
10 -15z m-530 -21 c58 -32 61 -38 30 -53 -39 -17 -84 16 -84 63 0 20 -1 21 54
-10z m286 -55 c0 -19 -36 -99 -44 -99 -3 0 0 16 6 36 7 28 6 48 -6 85 -9 26
-16 51 -16 56 1 18 60 -59 60 -78z m1047 75 c-3 -3 -12 -4 -19 -1 -8 3 -5 6 6
6 11 1 17 -2 13 -5z m883 -16 c10 -6 2 -8 -25 -4 -22 3 -51 6 -65 7 -23 1 -23
2 5 9 32 8 60 4 85 -12z m-2016 -14 c0 -10 -4 -39 -7 -64 -6 -42 -6 -43 4 -10
18 64 20 67 29 45 13 -31 11 -79 -3 -99 -16 -21 -60 -24 -82 -6 -14 12 -14 15
2 32 13 14 15 23 7 35 -8 12 -5 27 10 55 22 39 42 45 40 12z m196 7 c-12 -23
-29 -35 -37 -27 -3 3 5 14 18 25 30 25 32 26 19 2z m121 -50 c6 -47 2 -51 -68
-64 -28 -6 -34 -3 -53 29 l-22 35 26 34 c26 33 26 34 69 21 39 -11 42 -14 48
-55z m847 42 c-11 -11 -25 -13 -47 -8 -45 10 -38 20 15 22 42 1 45 0 32 -14z
m129 -18 c12 -12 18 -13 23 -5 5 8 10 8 14 2 11 -18 -24 -22 -54 -7 -49 25
-116 16 -162 -23 -11 -9 -18 -11 -18 -4 0 14 14 23 70 44 51 20 103 17 127 -7z
m-948 -59 c1 -54 -5 -42 -12 24 -4 36 -3 48 3 35 5 -11 9 -38 9 -59z m655 48
c8 -31 11 -29 -39 -42 l-40 -11 53 5 c42 4 52 2 52 -11 0 -11 -12 -15 -40 -17
-22 -1 -48 -2 -57 -2 -13 -1 -18 7 -19 29 -2 54 12 75 50 75 28 0 35 -4 40
-26z m-1220 -35 c-10 -16 -24 -9 -24 12 0 18 2 19 15 9 8 -7 12 -16 9 -21z
m411 -23 l20 -29 -28 17 c-15 10 -27 22 -27 26 0 5 -3 17 -7 27 -6 16 -5 16 8
3 9 -8 24 -28 34 -44z m1383 38 c24 -5 29 -10 24 -28 -7 -29 -21 -45 -55 -62
-32 -17 -32 -17 -41 12 -5 18 -3 21 16 19 13 -1 15 0 6 2 -21 5 -23 14 -6 31
8 8 9 12 1 12 -6 0 -14 -6 -16 -12 -4 -10 -8 -9 -17 2 -9 12 -10 7 -5 -23 3
-21 9 -45 12 -53 4 -10 -3 -14 -21 -14 -26 0 -26 1 -12 21 15 23 12 43 -11 71
-13 15 -12 17 9 21 37 7 83 7 116 1z m522 -10 c0 -8 -5 -12 -10 -9 -6 4 -8 11
-5 16 9 14 15 11 15 -7z m-659 -16 c25 -32 24 -53 -7 -77 -36 -28 -64 -27 -64
2 -1 12 -7 33 -15 47 -16 28 -20 54 -5 30 6 -9 10 -10 10 -3 0 6 12 14 28 16
15 2 29 5 30 6 2 0 12 -9 23 -21z m-1636 -22 c-21 -31 -35 -33 -35 -6 0 12 9
24 23 29 30 12 32 7 12 -23z m115 25 c0 -19 -20 -22 -47 -7 l-28 15 38 1 c20
0 37 -4 37 -9z m26 -20 c-12 -19 -24 -12 -19 10 4 13 9 17 15 11 6 -6 7 -15 4
-21z m520 -28 c-5 -13 -9 -13 -23 -2 -14 12 -15 11 -9 -7 4 -14 2 -23 -8 -27
-10 -4 -15 3 -18 24 -4 24 1 32 26 47 30 18 31 18 34 -1 2 -10 1 -25 -2 -34z
m-596 22 c7 -8 20 -15 30 -15 24 0 32 -24 18 -58 l-11 -27 -7 25 c-8 24 -8 24
-9 3 -1 -18 -10 -25 -46 -34 -57 -14 -53 -23 4 -10 39 8 41 8 41 -13 0 -13 -3
-26 -7 -30 -4 -4 -9 -19 -10 -34 -3 -21 -1 -24 7 -12 7 11 10 6 10 -22 0 -21
-3 -38 -7 -38 -9 0 -51 65 -81 125 -32 63 -31 89 2 124 33 35 48 38 66 16z
m2360 11 c0 -3 -4 -8 -10 -11 -5 -3 -10 -1 -10 4 0 6 5 11 10 11 6 0 10 -2 10
-4z m-2051 -19 c6 -8 8 -17 4 -20 -11 -12 -21 -7 -26 13 -6 23 5 26 22 7z
m148 -33 c-3 -3 -25 -4 -48 -2 -44 4 -42 7 16 25 23 7 31 6 33 -5 2 -7 2 -16
-1 -18z m-227 -6 c0 -5 -9 -8 -20 -8 -18 0 -19 3 -8 20 9 14 14 16 20 7 4 -7
8 -15 8 -19z m940 17 c0 -9 -9 -15 -22 -15 -22 1 -23 1 -4 15 25 19 26 19 26
0z m-100 -5 c13 -8 13 -10 -2 -10 -9 0 -20 5 -23 10 -8 13 5 13 25 0z m-804
-19 c-4 -5 -1 -11 5 -13 6 -2 9 -22 7 -48 l-3 -45 -14 42 c-13 38 -10 73 4 73
4 0 4 -4 1 -9z m325 -54 c-7 -7 -15 -6 -25 2 -11 10 -14 7 -12 -13 1 -19 4
-22 18 -15 24 13 27 12 21 -13 -11 -50 -13 -52 -29 -32 -15 18 -15 18 -9 -3 4
-15 0 -25 -12 -33 -16 -10 -15 -10 5 -5 25 7 26 5 10 -29 -8 -19 -14 -23 -24
-15 -9 8 -11 5 -7 -10 4 -16 1 -21 -13 -21 -13 0 -15 -3 -6 -8 9 -6 2 -17 -24
-40 -20 -18 -32 -32 -28 -32 15 0 -58 -68 -79 -74 -16 -4 -14 1 10 22 81 73
130 169 140 278 5 58 9 66 37 82 l31 18 3 -24 c2 -13 -1 -29 -7 -35z m-506 31
c-19 -11 -30 -5 -21 11 4 6 14 7 22 4 15 -5 14 -7 -1 -15z m314 -43 c17 -30
34 -55 37 -55 3 0 -6 21 -21 46 -15 25 -25 47 -23 49 1 2 18 -10 37 -25 l34
-29 -39 -80 c-21 -45 -42 -81 -45 -81 -3 0 -15 14 -27 30 -23 30 -15 43 8 15
7 -8 18 -15 24 -15 6 1 -11 20 -37 44 -44 40 -49 48 -54 100 l-6 56 41 0 c38
0 42 -3 71 -55z m61 35 c0 -11 -4 -20 -8 -20 -5 0 -17 9 -27 20 -18 20 -17 20
8 20 20 0 27 -5 27 -20z m-336 -11 c-3 -6 -12 -8 -20 -5 -8 3 -14 -1 -14 -8 0
-13 -29 -31 -37 -23 -9 10 10 34 35 44 30 11 46 7 36 -8z m56 9 c0 -9 3 -9 12
0 15 15 42 16 33 2 -4 -6 -11 -8 -16 -5 -5 3 -6 -1 -3 -9 7 -19 -5 -20 -28 -2
-20 15 -23 26 -8 26 6 0 10 -5 10 -12z m1338 -31 c15 -43 15 -47 -4 -47 -8 0
-22 16 -30 35 -18 44 -18 45 4 45 11 0 22 -12 30 -33z m1260 19 c-10 -7 -18
-18 -18 -24 0 -21 -37 -33 -50 -17 -10 11 -5 18 27 33 45 23 65 27 41 8z
m-2620 -72 l-14 -46 -19 48 c-17 46 -17 48 1 61 15 11 20 11 33 -1 12 -13 12
-21 -1 -62z m86 60 c3 -8 2 -12 -4 -9 -6 3 -10 10 -10 16 0 14 7 11 14 -7z
m-135 -161 c-17 -24 -29 -46 -27 -48 2 -2 15 14 28 35 14 22 28 40 31 40 3 0
3 -19 -2 -42 -4 -24 -8 -49 -9 -55 0 -22 -28 -14 -65 18 -34 30 -35 34 -35
100 0 42 4 69 11 69 5 0 7 5 3 12 -4 7 -3 8 4 4 7 -4 20 -3 29 3 15 8 21 2 40
-41 l23 -50 -31 -45z m1581 121 c0 -8 5 -12 10 -9 6 3 10 2 10 -3 0 -5 -25
-12 -55 -15 -30 -3 -68 -12 -84 -20 -29 -15 -30 -14 -29 14 1 25 6 30 42 38
67 15 106 13 106 -5z m1090 8 c0 -14 -36 -43 -43 -35 -4 3 0 15 10 25 17 19
33 24 33 10z m-2530 -29 c27 -26 30 -34 32 -104 3 -74 17 -101 19 -36 l1 32
10 -34 c12 -43 3 -53 -59 -58 -47 -5 -48 -4 -61 29 -6 19 -16 56 -21 84 -8 42
-7 54 11 82 11 17 24 32 29 32 5 0 22 -12 39 -27z m1240 -57 c-1 -21 -1 -21
-15 -2 -21 27 -20 53 0 36 8 -7 15 -22 15 -34z m31 30 c-10 -11 -8 -17 6 -25
16 -9 16 -10 1 -11 -9 0 -20 5 -23 10 -9 15 1 40 16 40 9 0 8 -4 0 -14z m1100
-2 c10 -13 10 -17 -2 -25 -18 -11 -26 -11 -34 1 -11 17 -23 11 -18 -9 4 -18
-13 -39 -23 -28 -11 11 9 55 29 65 30 14 33 14 48 -4z m-96 -46 c-16 -40 -54
-52 -145 -46 -67 5 -139 33 -124 48 5 5 31 10 59 11 48 3 50 2 56 -26 l7 -30
1 32 c1 34 8 37 118 41 l42 2 -14 -32z m-2186 -22 c24 -30 29 -42 20 -52 -18
-22 -25 -17 -38 27 -7 23 -15 48 -18 58 -8 20 -2 15 36 -33z m1192 11 c-1 -12
-15 -9 -19 4 -3 6 1 10 8 8 6 -3 11 -8 11 -12z m718 -12 c23 -14 50 -25 60
-26 9 0 1 -5 -17 -10 -21 -7 -38 -6 -50 1 -14 8 -11 9 13 5 17 -3 -3 6 -43 19
-89 29 -98 36 -46 36 23 0 57 -10 83 -25z m-2080 -77 c0 -10 -6 -18 -15 -18
-13 0 -15 7 -10 31 3 17 7 39 7 48 1 17 16 -33 18 -61z m1356 52 c3 -5 -1 -10
-9 -10 -9 0 -16 5 -16 10 0 6 4 10 9 10 6 0 13 -4 16 -10z m838 -17 c-7 -2
-19 -2 -25 0 -7 3 -2 5 12 5 14 0 19 -2 13 -5z m-46 -9 c-3 -3 -12 -4 -19 -1
-8 3 -5 6 6 6 11 1 17 -2 13 -5z m46 -11 c-7 -2 -19 -2 -25 0 -7 3 -2 5 12 5
14 0 19 -2 13 -5z"/>
<path d="M2443 2096 c4 -10 7 -22 7 -27 0 -5 4 -9 9 -9 12 0 2 38 -12 47 -7 4
-8 0 -4 -11z"/>
<path d="M2890 2088 c0 -2 14 -16 32 -33 25 -24 29 -25 19 -8 -9 18 -51 51
-51 41z"/>
<path d="M2970 2080 c8 -5 20 -10 25 -10 6 0 3 5 -5 10 -8 5 -19 10 -25 10 -5
0 -3 -5 5 -10z"/>
<path d="M2840 2055 c13 -14 26 -25 28 -25 3 0 -5 11 -18 25 -13 14 -26 25
-28 25 -3 0 5 -11 18 -25z"/>
<path d="M3010 2066 c0 -2 7 -9 15 -16 13 -11 14 -10 9 4 -5 14 -24 23 -24 12z"/>
<path d="M2880 1431 c0 -6 4 -13 10 -16 6 -3 7 1 4 9 -7 18 -14 21 -14 7z"/>
<path d="M3375 1310 c-3 -5 -1 -10 4 -10 6 0 11 5 11 10 0 6 -2 10 -4 10 -3 0
-8 -4 -11 -10z"/>
<path d="M3027 1190 c46 -11 63 -28 63 -64 l0 -31 -31 38 c-17 20 -38 37 -47
37 -11 0 -5 -8 16 -21 38 -25 42 -38 9 -32 -13 3 -31 17 -41 31 -15 24 -17 24
-13 5 3 -13 -1 -24 -9 -27 -8 -3 -14 -13 -14 -23 0 -15 -2 -16 -10 -3 -5 9 -5
19 2 27 7 9 7 13 -1 13 -17 0 -26 -29 -13 -42 17 -17 62 -19 69 -2 6 17 21 18
53 1 35 -19 46 -12 44 25 -3 40 -44 78 -82 77 -25 -1 -25 -2 5 -9z m-37 -80
c0 -5 -5 -10 -11 -10 -5 0 -7 5 -4 10 3 6 8 10 11 10 2 0 4 -4 4 -10z"/>
<path d="M2868 1103 c7 -3 16 -2 19 1 4 3 -2 6 -13 5 -11 0 -14 -3 -6 -6z"/>
<path d="M2738 1093 c23 -2 59 -2 80 0 20 2 1 4 -43 4 -44 0 -61 -2 -37 -4z"/>
<path d="M1937 1263 c-4 -3 -7 -15 -7 -25 0 -12 7 -18 24 -18 33 0 44 20 21
37 -21 15 -29 16 -38 6z m31 -12 c10 -6 9 -10 -7 -14 -14 -3 -21 0 -21 9 0 16
9 18 28 5z"/>
<path d="M1913 1230 c2 -22 7 -25 42 -27 39 -1 39 -1 6 5 -20 4 -37 15 -42 27
-8 18 -8 17 -6 -5z"/>
<path d="M2011 1006 c-12 -14 -5 -26 16 -26 15 0 18 26 4 34 -5 3 -14 0 -20
-8z"/>
<path d="M632 865 c0 -16 2 -22 5 -12 2 9 2 23 0 30 -3 6 -5 -1 -5 -18z"/>
<path d="M2946 764 c-4 -9 -4 -19 -1 -22 2 -3 7 3 11 12 4 9 4 19 1 22 -2 3
-7 -3 -11 -12z"/>
<path d="M2801 754 c0 -11 3 -14 6 -6 3 7 2 16 -1 19 -3 4 -6 -2 -5 -13z"/>
<path d="M1070 2025 c0 -15 18 -40 24 -34 3 3 -1 14 -9 25 -8 10 -14 15 -15 9z"/>
<path d="M1037 2013 c-4 -3 -7 -13 -7 -22 1 -13 3 -13 11 2 11 19 8 33 -4 20z"/>
<path d="M1125 1993 c11 -11 54 -48 95 -82 l75 -63 -75 71 c-41 39 -84 76 -95
82 l-20 11 20 -19z"/>
<path d="M1110 1962 c0 -5 21 -26 48 -48 74 -62 89 -71 57 -35 -39 43 -105 95
-105 83z"/>
<path d="M1077 1946 c-4 -10 -7 -25 -6 -34 0 -11 4 -9 10 7 5 13 8 29 6 35 -2
5 -6 2 -10 -8z"/>
<path d="M1300 1847 c0 -10 315 -290 380 -338 40 -30 75 -48 90 -48 21 1 21 2
5 6 -30 8 -130 82 -236 175 -203 179 -239 209 -239 205z"/>
<path d="M1156 1815 c-6 -22 5 -36 84 -111 49 -47 109 -101 133 -119 23 -18
59 -49 79 -69 42 -42 53 -44 69 -15 10 19 4 29 -60 93 -39 39 -97 94 -130 121
-33 28 -60 56 -60 63 -1 7 -9 15 -18 19 -10 3 -30 15 -45 25 -35 24 -45 23
-52 -7z m84 -45 c0 -5 -7 -10 -15 -10 -8 0 -15 5 -15 10 0 6 7 10 15 10 8 0
15 -4 15 -10z m63 -48 c25 -27 3 -46 -29 -25 -19 12 -21 17 -11 28 16 19 21
18 40 -3z m29 -45 c-6 -7 -7 -18 -3 -25 6 -10 11 -10 21 2 7 9 16 13 22 10 11
-7 -9 -34 -25 -34 -6 0 -19 7 -29 17 -17 15 -17 17 -1 35 18 20 32 16 15 -5z
m76 -49 c7 -7 12 -17 12 -22 0 -6 -7 -2 -15 8 -8 11 -18 17 -21 13 -4 -4 -1
-13 6 -22 7 -8 8 -15 2 -15 -5 0 -15 7 -23 16 -10 13 -10 17 2 25 19 12 23 11
37 -3z m37 -39 c-4 -6 2 -13 14 -16 25 -6 27 -18 5 -27 -22 -8 -26 -8 -19 4 3
6 0 13 -9 16 -15 6 -11 34 6 34 5 0 6 -5 3 -11z"/>
<path d="M2431 1781 c-28 -54 -27 -69 3 -66 30 4 46 13 46 26 0 6 -8 3 -17 -7
-23 -22 -28 -4 -13 42 17 50 5 54 -19 5z"/>
<path d="M1301 1794 c0 -8 93 -89 156 -136 24 -18 25 -18 8 -1 -47 46 -165
144 -164 137z"/>
<path d="M2345 1659 c-40 -79 -57 -119 -50 -119 5 0 55 97 78 153 26 61 10 42
-28 -34z"/>
<path d="M2948 1703 c7 -3 16 -2 19 1 4 3 -2 6 -13 5 -11 0 -14 -3 -6 -6z"/>
<path d="M2883 1693 c9 -2 23 -2 30 0 6 3 -1 5 -18 5 -16 0 -22 -2 -12 -5z"/>
<path d="M2828 1683 c7 -3 16 -2 19 1 4 3 -2 6 -13 5 -11 0 -14 -3 -6 -6z"/>
<path d="M2815 1640 c-13 -5 -14 -9 -5 -9 8 0 24 4 35 9 13 5 14 9 5 9 -8 0
-24 -4 -35 -9z"/>
<path d="M3160 1635 c7 -9 15 -13 17 -11 7 7 -7 26 -19 26 -6 0 -6 -6 2 -15z"/>
<path d="M1520 1605 c13 -14 26 -25 28 -25 3 0 -5 11 -18 25 -13 14 -26 25
-28 25 -3 0 5 -11 18 -25z"/>
<path d="M1597 1539 c24 -25 57 -53 75 -63 l33 -17 -25 21 c-14 11 -47 39 -75
62 l-50 41 42 -44z"/>
<path d="M2110 1559 c-69 -4 -145 -13 -170 -18 l-45 -10 49 4 c136 14 251 16
236 6 -19 -14 -11 -14 29 0 17 6 31 15 31 20 0 5 -1 8 -2 8 -2 -1 -59 -6 -128
-10z"/>
<path d="M1995 1520 l-70 -6 80 -2 c44 0 98 3 120 7 l40 9 -50 -1 c-27 0 -81
-3 -120 -7z"/>
<path d="M1560 1482 c-31 -25 -22 -69 16 -78 39 -10 71 26 58 63 -12 34 -42
41 -74 15z m55 -26 c0 -31 -31 -44 -52 -23 -17 17 -17 19 2 33 25 19 50 14 50
-10z"/>
<path d="M2205 1490 c-3 -5 -2 -10 4 -10 5 0 13 5 16 10 3 6 2 10 -4 10 -5 0
-13 -4 -16 -10z"/>
<path d="M2158 1473 c6 -2 18 -2 25 0 6 3 1 5 -13 5 -14 0 -19 -2 -12 -5z"/>
<path d="M2088 1463 c6 -2 18 -2 25 0 6 3 1 5 -13 5 -14 0 -19 -2 -12 -5z"/>
<path d="M1808 1453 c7 -3 16 -2 19 1 4 3 -2 6 -13 5 -11 0 -14 -3 -6 -6z"/>
<path d="M1968 1453 c6 -2 18 -2 25 0 6 3 1 5 -13 5 -14 0 -19 -2 -12 -5z"/>
<path d="M1853 1383 c9 -2 23 -2 30 0 6 3 -1 5 -18 5 -16 0 -22 -2 -12 -5z"/>
<path d="M1826 1357 c10 -15 23 -27 28 -27 12 0 -18 43 -34 48 -8 3 -6 -5 6
-21z"/>
<path d="M2526 1311 c-4 -5 -2 -12 3 -15 5 -4 12 -2 15 3 4 5 2 12 -3 15 -5 4
-12 2 -15 -3z"/>
<path d="M2347 1183 c-4 -3 -7 -13 -7 -22 1 -13 3 -13 11 2 11 19 8 33 -4 20z"/>
<path d="M1775 1042 c-16 -11 -37 -27 -45 -38 -12 -16 -10 -15 10 2 45 38 66
45 111 35 23 -5 55 -19 71 -31 34 -25 48 -22 19 4 -22 20 -86 45 -116 46 -11
0 -33 -8 -50 -18z"/>
<path d="M1851 994 c26 -7 52 -21 59 -29 18 -22 33 -18 20 5 -6 10 -27 24 -48
30 -56 15 -84 11 -31 -6z"/>
<path d="M1798 974 c-36 -19 -38 -61 -5 -92 29 -27 47 -28 81 -1 64 50 -3 132
-76 93z m80 -27 c14 -11 17 -31 2 -22 -5 3 -15 3 -22 -1 -8 -5 -6 -10 8 -15
17 -6 17 -8 -8 -19 -24 -11 -31 -11 -48 5 -51 46 12 95 68 52z"/>
<path d="M2348 973 c7 -3 16 -2 19 1 4 3 -2 6 -13 5 -11 0 -14 -3 -6 -6z"/>
<path d="M2603 966 c-4 -8 -21 -16 -38 -19 l-30 -4 32 -2 c23 -1 35 5 43 19
12 22 5 28 -7 6z"/>
<path d="M2371 959 c-14 -5 -31 -7 -38 -5 -7 3 -13 1 -13 -4 0 -6 13 -10 29
-10 16 0 31 -6 35 -15 4 -13 -9 -15 -82 -16 -85 -2 -86 -2 -27 -8 71 -8 225
-6 275 4 51 10 75 28 27 20 -28 -5 -39 -2 -43 10 -9 22 -23 18 -17 -5 3 -11 1
-20 -3 -20 -5 0 -15 9 -22 20 -9 15 -24 20 -60 22 l-47 1 50 7 50 7 -45 1
c-25 0 -56 -4 -69 -9z"/>
<path d="M1550 935 c0 -9 10 -15 28 -16 l27 -1 -30 -8 c-27 -7 -25 -8 18 -9
36 -1 47 3 47 14 0 8 -5 15 -11 15 -5 0 -7 5 -4 10 4 6 -10 10 -34 10 -30 0
-41 -4 -41 -15z"/>
<path d="M1740 921 c0 -43 67 -101 102 -88 9 3 6 7 -7 12 -38 13 -50 22 -72
55 -13 18 -23 28 -23 21z"/>
<path d="M3026 910 c-32 -10 -64 -24 -70 -30 -8 -8 -2 -8 19 1 17 6 59 20 95
29 36 10 54 18 40 19 -14 0 -51 -9 -84 -19z"/>
<path d="M1737 843 c18 -18 41 -33 50 -32 13 0 11 3 -7 10 -14 6 -36 20 -50
32 -14 12 -11 7 7 -10z"/>
<path d="M2235 811 c11 -4 36 -11 55 -15 24 -4 29 -3 15 3 -11 4 -36 11 -55
15 -24 4 -29 3 -15 -3z"/>
</g>
</svg>
